<?xml version="1.0" encoding="UTF-8" standalone="no"?>
<svg
   xmlns:dc="http://purl.org/dc/elements/1.1/"
   xmlns:cc="http://creativecommons.org/ns#"
   xmlns:rdf="http://www.w3.org/1999/02/22-rdf-syntax-ns#"
   xmlns:svg="http://www.w3.org/2000/svg"
   xmlns="http://www.w3.org/2000/svg"
   xmlns:xlink="http://www.w3.org/1999/xlink"
   viewBox="0 0 75.590554 56.692912"
   height="1.5cm"
   width="2cm"
   id="svg297"
   version="1.1">
  <metadata
     id="metadata303">
    <rdf:RDF>
      <cc:Work
         rdf:about="">
        <dc:format>image/svg+xml</dc:format>
        <dc:type
           rdf:resource="http://purl.org/dc/dcmitype/StillImage" />
        <dc:title></dc:title>
      </cc:Work>
    </rdf:RDF>
  </metadata>
  <defs
     id="defs301">
    <linearGradient
       id="linearGradient7327">
      <stop
         id="stop7323"
         offset="0"
         style="stop-color:#1e323d;stop-opacity:1;" />
      <stop
         id="stop7325"
         offset="1"
         style="stop-color:#1e323d;stop-opacity:0;" />
    </linearGradient>
    <linearGradient
       id="linearGradient7246">
      <stop
         id="stop7242"
         offset="0"
         style="stop-color:#1e323d;stop-opacity:1;" />
      <stop
         id="stop7244"
         offset="1"
         style="stop-color:#1e323d;stop-opacity:0;" />
    </linearGradient>
    <linearGradient
       gradientUnits="userSpaceOnUse"
       y2="-12.577412"
       x2="93.325424"
       y1="69.94191"
       x1="57.959999"
       id="linearGradient7254"
       xlink:href="#linearGradient7246" />
    <linearGradient
       gradientUnits="userSpaceOnUse"
       y2="-6.4375811"
       x2="-7.858983"
       y1="70.678688"
       x1="3.6838982"
       id="linearGradient7339"
       xlink:href="#linearGradient7327" />
    <linearGradient
       xlink:href="#linearGradient5132"
       id="linearGradient5134"
       x1="12.519581"
       y1="264.73123"
       x2="1.5869892"
       y2="286.9491"
       gradientUnits="userSpaceOnUse" />
    <linearGradient
       id="linearGradient5132">
      <stop
         style="stop-color:#20323d;stop-opacity:1;"
         offset="0"
         id="stop5128" />
      <stop
         style="stop-color:#20323d;stop-opacity:0;"
         offset="1"
         id="stop5130" />
    </linearGradient>
    <linearGradient
       xlink:href="#linearGradient5132"
       id="linearGradient5142"
       x1="37.735077"
       y1="263.67325"
       x2="42.143379"
       y2="279.19046"
       gradientUnits="userSpaceOnUse" />
  </defs>
  <g
     id="layer1"
     transform="matrix(1.4687677,0,0,1.3296368,1.1810689,-332.08717)">
    <path
       style="opacity:1;fill:#20323d;fill-opacity:0.94761903;stroke-width:0.07790372"
       d="m 16.306139,290.39204 c -1.204227,-0.18556 -2.204133,-1.21152 -2.454068,-2.51785 -0.04206,-0.21979 -0.197444,-5.29187 -0.345277,-11.2712 -0.218319,-8.82944 -0.26821,-12.01849 -0.265625,-16.97778 0.0031,-5.96794 0.0066,-6.11464 0.158013,-6.47494 0.198711,-0.47316 0.469417,-0.77018 0.94386,-1.0356 l 0.379609,-0.21249 h 4.85898 4.858981 l 0.379607,0.21249 c 0.46936,0.26257 0.742028,0.5595 0.942879,1.02665 0.137684,0.32025 0.154833,0.52397 0.156316,1.85727 l 0.0016,1.49754 0.29199,-0.16013 c 0.285,-0.15634 0.41485,-0.15962 5.422307,-0.1385 l 5.130314,0.0226 0.203111,0.1999 c 0.416643,0.40997 0.41644,0.40828 0.41644,3.43861 0,1.78714 -0.02862,2.86337 -0.07881,2.9621 -0.0551,0.10819 -0.05251,0.29321 0.0085,0.61424 0.07361,0.38677 -0.01002,2.25612 -0.529727,11.85033 -0.339416,6.26512 -0.649501,11.71027 -0.689079,12.10036 -0.164923,1.62557 -1.117097,2.76483 -2.509591,3.0027 -0.569914,0.0974 -16.651141,0.10199 -17.280469,0.004 z m 12.082391,-8.42175 c 1.908281,-0.46429 3.049752,-1.82884 3.844228,-4.59556 0.248962,-0.867 0.635703,-2.79624 0.573641,-2.86157 -0.0232,-0.0251 -0.479878,0.0708 -1.01466,0.21174 -2.956606,0.77919 -4.797526,1.96694 -5.634876,3.63558 l -0.159854,0.31857 v -1.52199 -1.52198 l 0.322668,-0.0201 c 0.615617,-0.0372 1.464326,-0.26142 2.010426,-0.53087 1.193279,-0.58872 1.826836,-1.75165 2.100969,-3.85641 0.118143,-0.90724 0.199333,-1.85955 0.158515,-1.85955 -0.01341,0 -0.329015,0.12239 -0.701506,0.27212 -1.889995,0.75942 -3.092664,1.66356 -3.649006,2.74325 l -0.237999,0.46191 -0.0021,-1.00525 c -0.0019,-0.97922 0.0031,-1.01032 0.194287,-1.19906 0.284672,-0.28103 0.822553,-1.16906 0.988899,-1.6327 0.205932,-0.57393 0.190724,-1.58795 -0.03463,-2.30857 -0.221691,-0.70894 -0.722278,-1.75067 -1.250121,-2.60159 l -0.417782,-0.67349 -0.339098,0.55357 c -1.134094,1.85141 -1.619773,3.62676 -1.340763,4.90103 0.119632,0.54634 0.454925,1.19918 0.849571,1.65422 l 0.360626,0.41576 v 0.81328 0.81328 l -0.327703,-0.50473 c -0.180251,-0.2776 -0.547509,-0.69511 -0.816158,-0.92778 -0.488086,-0.42276 -2.037285,-1.282 -2.898958,-1.60789 l -0.436551,-0.16517 0.0014,0.45853 c 0.0018,0.57138 0.183455,1.93973 0.344502,2.5941 0.476826,1.93747 1.574929,2.88964 3.64633,3.16176 l 0.449191,0.059 0.02081,1.39065 0.02081,1.39067 -0.30768,-0.48511 c -0.631586,-0.99584 -1.724785,-1.84506 -3.16948,-2.46211 -0.754601,-0.32229 -2.322019,-0.81672 -3.003075,-0.94727 l -0.288939,-0.0554 0.04926,0.30421 c 0.258352,1.59551 0.7253,3.30321 1.177103,4.30488 0.807421,1.79007 1.866134,2.6416 3.679047,2.95908 0.882192,0.15458 4.510623,0.10347 5.238589,-0.0735 z M 17.987278,260.77196 c 1.676746,-0.0752 3.714248,-0.54018 4.591251,-1.04776 0.601424,-0.34804 1.300265,-0.91394 2.096918,-1.6979 l 0.600302,-0.59076 -8.87e-4,-0.96803 c -6.56e-4,-0.73111 -0.03503,-1.07202 -0.140587,-1.3929 -0.180251,-0.54798 -0.595588,-1.00961 -1.015304,-1.12839 -0.2259,-0.064 -1.46869,-0.0844 -4.175686,-0.0683 -3.830471,0.0226 -3.856008,0.0226 -4.173446,0.20241 -0.199357,0.11204 -0.391961,0.31011 -0.512472,0.52661 l -0.193067,0.3469 v 2.41429 c 0,2.21133 0.01194,2.43918 0.143755,2.71085 0.276313,0.57002 0.738212,0.83914 1.336707,0.7788 0.20878,-0.0201 0.857915,-0.0597 1.442511,-0.0859 z m -14.1638182,0.25731 c -0.045772,-0.18356 -0.1659753,-0.63805 -0.2671449,-1.00987 -0.2113374,-0.77672 -0.2266885,-1.04402 -0.077264,-1.34637 0.2357515,-0.47706 0.3792328,-0.53983 2.9650678,-1.29701 2.3425605,-0.68595 2.5215128,-0.72666 2.8028078,-0.63794 0.5213348,0.16441 0.671816,0.40586 0.9820915,1.57549 0.153996,0.58052 0.27999,1.09313 0.27999,1.13913 0,0.0479 -0.175971,0.0837 -0.412604,0.0837 -0.2269289,0 -0.6625336,0.0548 -0.9679995,0.12209 -1.0839262,0.23842 -4.1319772,1.17687 -4.6727231,1.43875 l -0.5490086,0.2659 z m 42.4066422,0.0619 c -0.524742,-0.2562 -3.577425,-1.19577 -4.655162,-1.43277 -0.305466,-0.0673 -0.741066,-0.12209 -0.967999,-0.12209 -0.236636,0 -0.412604,-0.0358 -0.412604,-0.0837 0,-0.0461 0.125998,-0.55861 0.279989,-1.13911 0.310275,-1.16963 0.460756,-1.41104 0.982092,-1.57549 0.281295,-0.0887 0.460247,-0.048 2.802808,0.63794 1.790347,0.52424 2.552983,0.78228 2.680363,0.90692 0.239169,0.23415 0.391547,0.55776 0.390571,0.82974 -6.96e-4,0.18984 -0.49189,2.17857 -0.549071,2.22288 -0.01076,0.007 -0.25869,-0.10169 -0.550987,-0.24423 z m -17.222431,-5.53808 c -0.182523,-0.2125 -0.188023,-2.81436 -0.0065,-3.00566 0.105426,-0.11101 0.582004,-0.12564 4.09546,-0.12564 h 3.976268 l 0.118173,0.17774 c 0.09505,0.14294 0.118202,0.42888 0.118202,1.46106 0,1.03223 -0.0232,1.31818 -0.118202,1.46109 l -0.118173,0.17776 h -3.969811 c -3.749469,0 -3.976784,-0.007 -4.09546,-0.14634 z"
       id="path307" />
    <path
       style="opacity:1;fill:url(#linearGradient5134);fill-opacity:1;stroke-width:0.15943852"
       d="m 9.9232183,287.79207 c -1.466289,-0.77038 -1.6655793,-1.22719 -3.3522953,-7.68398 -0.7874422,-3.01436 -1.9906154,-7.57881 -2.6737211,-10.14327 -1.4392165,-5.40298 -1.4540179,-5.61985 -0.448119,-6.56538 0.4373775,-0.41114 1.0267084,-0.72593 1.9147087,-1.02277 1.9266306,-0.64403 4.2856106,-1.24631 4.8815504,-1.24631 0.794568,0 1.562221,0.40624 1.913497,1.01267 0.722271,1.24684 0.765654,1.74736 1.005674,11.603 0.125762,5.16378 0.268076,10.42203 0.316263,11.68505 l 0.08761,2.29636 -0.705075,0.19865 c -1.03544,0.29157 -2.234156,0.23691 -2.9401005,-0.13392 z"
       id="path318" />
    <path
       style="opacity:1;fill:url(#linearGradient5142);fill-opacity:1;stroke-width:0.15943852"
       d="m 37.519789,287.46738 -0.979747,-0.32043 0.08975,-1.09578 c 0.04935,-0.60267 0.337263,-5.67974 0.63979,-11.2824 0.495667,-9.17948 0.586113,-10.31724 0.914792,-11.5076 0.735002,-2.66186 1.584813,-2.91081 5.753535,-1.68551 3.863606,1.13562 4.593574,1.89131 4.037458,4.17973 -0.235202,0.96788 -2.932268,11.26329 -4.51547,17.23681 -0.807086,3.04515 -1.164388,3.70162 -2.378105,4.36921 -1.008294,0.55461 -2.091672,0.58683 -3.561996,0.10598 z"
       id="path320" />
  </g>
</svg>
