<?xml version="1.0" encoding="UTF-8" standalone="no"?>
<svg
   xmlns:dc="http://purl.org/dc/elements/1.1/"
   xmlns:cc="http://creativecommons.org/ns#"
   xmlns:rdf="http://www.w3.org/1999/02/22-rdf-syntax-ns#"
   xmlns:svg="http://www.w3.org/2000/svg"
   xmlns="http://www.w3.org/2000/svg"
   xmlns:xlink="http://www.w3.org/1999/xlink"
   viewBox="0 0 75.590554 75.59055"
   height="2cm"
   width="2cm"
   id="svg297"
   version="1.1">
  <metadata
     id="metadata303">
    <rdf:RDF>
      <cc:Work
         rdf:about="">
        <dc:format>image/svg+xml</dc:format>
        <dc:type
           rdf:resource="http://purl.org/dc/dcmitype/StillImage" />
        <dc:title></dc:title>
      </cc:Work>
    </rdf:RDF>
  </metadata>
  <defs
     id="defs301">
    <linearGradient
       id="linearGradient7753">
      <stop
         id="stop7749"
         offset="0"
         style="stop-color:#1e323d;stop-opacity:1;" />
      <stop
         id="stop7751"
         offset="1"
         style="stop-color:#1e323d;stop-opacity:0;" />
    </linearGradient>
    <linearGradient
       id="linearGradient7327">
      <stop
         id="stop7323"
         offset="0"
         style="stop-color:#1e323d;stop-opacity:1;" />
      <stop
         id="stop7325"
         offset="1"
         style="stop-color:#1e323d;stop-opacity:0;" />
    </linearGradient>
    <linearGradient
       id="linearGradient7246">
      <stop
         id="stop7242"
         offset="0"
         style="stop-color:#1e323d;stop-opacity:1;" />
      <stop
         id="stop7244"
         offset="1"
         style="stop-color:#1e323d;stop-opacity:0;" />
    </linearGradient>
    <linearGradient
       gradientUnits="userSpaceOnUse"
       y2="-12.577412"
       x2="93.325424"
       y1="69.94191"
       x1="57.959999"
       id="linearGradient7254"
       xlink:href="#linearGradient7246" />
    <linearGradient
       gradientUnits="userSpaceOnUse"
       y2="-6.4375811"
       x2="-7.858983"
       y1="70.678688"
       x1="3.6838982"
       id="linearGradient7339"
       xlink:href="#linearGradient7327" />
    <linearGradient
       gradientUnits="userSpaceOnUse"
       y2="-16.102259"
       x2="-56.266045"
       y1="85.315552"
       x1="22.923203"
       id="linearGradient7755"
       xlink:href="#linearGradient7753" />
  </defs>
  <path
     id="path7727"
     d="M 27.735597,60.343296 C 21.252137,58.674683 17.156973,56.027561 12.189766,50.294433 9.2692087,46.923533 8.314833,45.480935 7.0263825,42.489675 5.6899198,39.386924 5.4147381,38.291679 5.244748,35.398638 L 5.0436985,31.977127 6.815251,34.98763 c 2.3294516,3.958555 7.643535,9.911239 10.661473,11.942649 5.464666,3.67836 11.555749,5.475238 18.559974,5.475238 4.752142,0 7.195767,-0.840943 14.234988,-4.898827 8.904867,-5.133348 14.637305,-10.240888 18.877696,-16.81978 l 2.217598,-3.440564 -0.156382,3.702158 c -0.184498,4.368997 -1.091967,6.855299 -4.009829,10.986224 -5.0669,7.173391 -18.706682,16.462266 -27.019105,18.400367 -3.445275,0.803336 -9.341646,0.807164 -12.44611,0.0082 z"
     style="opacity:1;fill:#1e323d;fill-opacity:0.94901961;stroke-width:0.40097392" />
  <path
     id="path7729"
     d="M 29.072159,46.777057 C 24.822061,45.817791 21.146805,43.910809 17.359404,40.699629 12.958672,36.968438 9.0471225,31.343894 8.0990341,27.383827 7.5648426,25.152678 8.4767619,22.772948 10.777766,20.39297 c 3.044148,-3.148598 8.127152,-4.534106 16.704501,-4.553282 5.800038,-0.0134 12.936739,-0.697214 15.020205,-1.440015 0.925271,-0.329946 3.287654,-1.390091 5.249751,-2.355978 8.48233,-4.175662 15.247766,-4.0968112 18.72712,0.218274 1.706288,2.116136 2.328745,4.000056 2.337828,7.07563 0.0071,2.373549 -0.2008,3.332355 -1.258521,5.805969 -3.681618,8.610169 -17.595643,19.01717 -28.734052,21.491654 -2.998923,0.66621 -7.160866,0.726783 -9.752439,0.141816 z m 1.94145,-13.895706 c 7.364643,-3.861208 8.874956,-4.393476 14.852978,-5.234476 6.067068,-0.853574 8.924981,-1.630356 11.794722,-3.205936 7.940892,-4.359831 5.110738,-10.742708 -4.800619,-10.826889 -6.950575,-0.05933 -12.97957,3.203229 -13.542709,7.327896 -0.38746,2.838047 -1.281322,4.296003 -3.324154,5.422051 -2.291995,1.263395 -3.86733,1.542816 -10.79374,1.914494 l -5.315239,0.285258 3.855311,1.410924 c 2.120416,0.775968 3.802723,1.570452 3.738448,1.765434 -0.06404,0.19502 -0.86068,1.005438 -1.769805,1.801031 -1.79328,1.569322 -2.307708,2.521698 -1.362091,2.521698 0.329315,0 3.329435,-1.431659 6.666898,-3.181456 z M 15.866011,21.015016 c 0.852271,-0.597789 1.215001,-1.175081 1.215001,-1.933709 0,-1.608002 -1.929457,-1.508453 -3.392862,0.175021 -1.952289,2.245914 -0.355352,3.535481 2.177861,1.758659 z m 5.701144,-2.576942 c 0,-1.147205 -1.714606,-1.660612 -2.505871,-0.750322 -0.80603,0.927257 -0.2923,1.602279 1.219475,1.602279 1.033041,0 1.286396,-0.167748 1.286396,-0.851947 z"
     style="opacity:1;fill:url(#linearGradient7755);fill-opacity:1;stroke-width:0.40097392" />
</svg>
