<?xml version="1.0" encoding="UTF-8" standalone="no"?>
<svg
   xmlns:dc="http://purl.org/dc/elements/1.1/"
   xmlns:cc="http://creativecommons.org/ns#"
   xmlns:rdf="http://www.w3.org/1999/02/22-rdf-syntax-ns#"
   xmlns:svg="http://www.w3.org/2000/svg"
   xmlns="http://www.w3.org/2000/svg"
   xmlns:xlink="http://www.w3.org/1999/xlink"
   viewBox="0 0 75.590554 75.59055"
   height="2cm"
   width="2cm"
   id="svg297"
   version="1.1">
  <metadata
     id="metadata303">
    <rdf:RDF>
      <cc:Work
         rdf:about="">
        <dc:format>image/svg+xml</dc:format>
        <dc:type
           rdf:resource="http://purl.org/dc/dcmitype/StillImage" />
        <dc:title></dc:title>
      </cc:Work>
    </rdf:RDF>
  </metadata>
  <defs
     id="defs301">
    <linearGradient
       id="linearGradient8014">
      <stop
         id="stop8010"
         offset="0"
         style="stop-color:#1e323d;stop-opacity:1;" />
      <stop
         id="stop8012"
         offset="1"
         style="stop-color:#1e323d;stop-opacity:0;" />
    </linearGradient>
    <linearGradient
       id="linearGradient7327">
      <stop
         id="stop7323"
         offset="0"
         style="stop-color:#1e323d;stop-opacity:1;" />
      <stop
         id="stop7325"
         offset="1"
         style="stop-color:#1e323d;stop-opacity:0;" />
    </linearGradient>
    <linearGradient
       id="linearGradient7246">
      <stop
         id="stop7242"
         offset="0"
         style="stop-color:#1e323d;stop-opacity:1;" />
      <stop
         id="stop7244"
         offset="1"
         style="stop-color:#1e323d;stop-opacity:0;" />
    </linearGradient>
    <linearGradient
       gradientUnits="userSpaceOnUse"
       y2="-12.577412"
       x2="93.325424"
       y1="69.94191"
       x1="57.959999"
       id="linearGradient7254"
       xlink:href="#linearGradient7246" />
    <linearGradient
       gradientUnits="userSpaceOnUse"
       y2="-6.4375811"
       x2="-7.858983"
       y1="70.678688"
       x1="3.6838982"
       id="linearGradient7339"
       xlink:href="#linearGradient7327" />
    <linearGradient
       gradientUnits="userSpaceOnUse"
       y2="44.331638"
       x2="113.22673"
       y1="1.2638042"
       x1="75.021393"
       id="linearGradient8016"
       xlink:href="#linearGradient8014" />
    <linearGradient
       gradientUnits="userSpaceOnUse"
       y2="44.331638"
       x2="113.22673"
       y1="1.2638042"
       x1="75.021393"
       id="linearGradient8018"
       xlink:href="#linearGradient8014" />
    <linearGradient
       gradientUnits="userSpaceOnUse"
       y2="44.331638"
       x2="113.22673"
       y1="1.2638042"
       x1="75.021393"
       id="linearGradient8020"
       xlink:href="#linearGradient8014" />
  </defs>
  <path
     id="path7983"
     d="m 27.397428,49.069929 c -0.200331,-0.14234 -0.764229,-1.14012 -1.253105,-2.21729 -1.845364,-4.06599 -4.492115,-6.26474 -8.56293,-7.11353 -2.255601,-0.4703 -5.669709,-0.30511 -7.8709772,0.38085 -0.508839,0.15856 -0.568345,0.0423 -0.390199,-0.76256 0.549885,-2.48428 1.2021582,-4.46082 1.5412622,-4.6704 0.205724,-0.12715 3.110816,-1.0859 6.455761,-2.13058 l 6.081715,-1.8994 0.0081,-2.8365 c 0.0087,-3.06073 0.20029,-3.67549 1.145184,-3.67549 1.000426,0 1.326008,0.7389 1.431464,3.2487 l 0.09999,2.37973 2.181355,-0.66067 c 3.411326,-1.0332 3.306615,-0.79992 3.854187,-8.58627 0.532864,-7.57719 0.87685,-9.15512 2.247162,-10.30816 1.340094,-1.1276196 2.605277,-1.2339296 13.255319,-1.1138496 8.913275,0.10049 9.51107,0.14619 10.403389,0.79525 1.649521,1.1998296 2.429329,3.3790696 3.79969,10.6185596 0.709488,3.74816 1.406163,7.11688 1.548162,7.48603 0.142003,0.36915 0.892074,1.60019 1.666828,2.73563 2.418228,3.54405 4.560883,9.97451 4.012762,12.04297 l -0.263474,0.99428 -0.344604,-1.00678 c -0.641758,-1.87493 -2.548032,-4.47937 -4.281512,-5.84961 -2.496095,-1.97305 -5.589019,-2.85297 -10.057232,-2.86125 -3.270929,-0.006 -3.686447,0.0703 -5.791845,1.06384 -3.188005,1.50448 -5.659404,3.95372 -7.302993,7.23751 -0.734618,1.46772 -1.336512,2.83987 -1.337541,3.04922 -0.001,0.20935 -0.151445,0.91905 -0.334256,1.57713 l -0.332385,1.1965 -4.615743,0.42081 c -2.538659,0.23144 -5.068795,0.48905 -5.622524,0.57247 -0.553728,0.0834 -1.170687,0.0352 -1.371018,-0.10714 z m 1.871603,-7.46522 c 0.843065,-0.533 -0.117146,-1.11031 -2.123469,-1.27669 -1.868412,-0.15494 -2.473733,0.16542 -2.108911,1.11613 0.216069,0.56306 3.40441,0.68402 4.23238,0.16056 z m 0.0028,-3.36477 c 0,-0.62857 -0.223729,-0.67118 -3.523729,-0.67118 -2.712711,0 -3.523728,0.10298 -3.523728,0.44745 0,0.79949 0.399591,0.89492 3.747457,0.89492 3.076271,0 3.3,-0.0455 3.3,-0.67119 z m -0.125167,-2.11212 c 0.114447,-0.11445 0.117181,-0.44497 0.0061,-0.73451 -0.173807,-0.45293 -0.940298,-0.51351 -5.490598,-0.43396 -4.644086,0.0812 -5.301797,0.16125 -5.396961,0.65697 -0.07958,0.41456 0.186724,0.60639 1.002529,0.72215 1.534031,0.21766 9.623124,0.0452 9.878953,-0.21065 z m 12.038726,-4.59454 c 0.922881,-0.35094 2.546313,-0.89798 3.607627,-1.21564 l 1.929661,-0.57757 v -9.20896 -9.20895 l -5.341638,0.11906 c -2.9379,0.0655 -5.416398,0.19457 -5.507772,0.28686 -0.223472,0.2257 -1.284108,19.18851 -1.084429,19.38819 0.212034,0.21204 2.754387,-1.82259 3.3628,-2.69122 0.435297,-0.62148 0.413524,-0.79772 -0.206029,-1.66781 -1.237497,-1.7379 -0.319683,-1.44075 1.567265,0.50741 2.05642,2.12314 2.566102,3.47775 0.823878,2.18967 l -1.016434,-0.75149 -1.748215,1.74822 -1.748215,1.74821 1.841768,-0.014 c 1.012972,-0.008 2.596852,-0.30109 3.519733,-0.65203 z m 18.404044,-2.27046 c 0.133039,-0.21768 -1.259226,-12.01292 -1.960801,-16.61186 l -0.243177,-1.59407 h -4.492402 -4.492405 v 9.05155 9.05154 l 4.614407,0.10366 c 2.537923,0.057 5.020789,0.13678 5.517481,0.17727 0.496691,0.0405 0.972297,-0.0396 1.056897,-0.17809 z"
     style="opacity:1;fill:url(#linearGradient8020);fill-opacity:1;stroke-width:0.33559319" />
  <path
     id="path7985"
     d="m 51.71384,62.776669 c -3.726236,-0.78051 -7.52431,-3.82205 -9.315073,-7.4596 -3.294127,-6.69132 -0.387446,-14.54881 6.662861,-18.01138 1.661304,-0.81591 2.225562,-0.91151 5.379699,-0.91151 3.168017,0 3.714158,0.0935 5.410147,0.92641 7.525378,3.69566 10.194149,12.16099 6.022166,19.10228 -1.519431,2.52801 -3.978728,4.64727 -6.478136,5.58241 -2.059689,0.77063 -5.862289,1.15249 -7.681664,0.77139 z m 5.759234,-7.84097 c 2.82275,-1.42474 3.839735,-5.03543 2.308941,-8.19763 -1.771865,-3.66019 -6.807304,-4.42263 -9.755048,-1.47708 -3.016247,3.01401 -2.105947,7.83035 1.897411,10.03908 1.160688,0.64038 3.91662,0.4594 5.548696,-0.36437 z"
     style="opacity:1;fill:url(#linearGradient8018);fill-opacity:1;stroke-width:0.33559319" />
  <path
     id="path7987"
     d="m 10.59128,61.941729 c -8.0298382,-3.81741 -8.1576472,-14.81558 -0.217585,-18.72365 3.164922,-1.55777 5.782354,-1.55241 8.973054,0.0184 7.821042,3.85028 7.820584,14.68422 -7.83e-4,18.51746 -2.483847,1.21734 -6.411865,1.3016 -8.754686,0.18782 z m 6.973439,-5.43759 c 1.085896,-0.55455 1.974914,-2.35584 1.974914,-4.00149 0,-3.68369 -3.584772,-5.90374 -6.952462,-4.30567 -1.594054,0.75643 -2.44134,2.23606 -2.442894,4.26606 -0.003,3.92226 3.702065,5.94 7.420442,4.0411 z"
     style="opacity:1;fill:url(#linearGradient8016);fill-opacity:1;stroke-width:0.33559319" />
</svg>
