<?xml version="1.0" encoding="UTF-8" standalone="no"?>
<svg
   xmlns:dc="http://purl.org/dc/elements/1.1/"
   xmlns:cc="http://creativecommons.org/ns#"
   xmlns:rdf="http://www.w3.org/1999/02/22-rdf-syntax-ns#"
   xmlns:svg="http://www.w3.org/2000/svg"
   xmlns="http://www.w3.org/2000/svg"
   xmlns:xlink="http://www.w3.org/1999/xlink"
   viewBox="0 0 327.67999 303.35999"
   height="303.35999"
   width="327.67999"
   id="svg5319"
   version="1.1">
  <metadata
     id="metadata5325">
    <rdf:RDF>
      <cc:Work
         rdf:about="">
        <dc:format>image/svg+xml</dc:format>
        <dc:type
           rdf:resource="http://purl.org/dc/dcmitype/StillImage" />
        <dc:title></dc:title>
      </cc:Work>
    </rdf:RDF>
  </metadata>
  <defs
     id="defs5323">
    <linearGradient
       id="linearGradient6834">
      <stop
         id="stop6830"
         offset="0"
         style="stop-color:#20323d;stop-opacity:1;" />
      <stop
         id="stop6832"
         offset="1"
         style="stop-color:#20323d;stop-opacity:0;" />
    </linearGradient>
    <linearGradient
       gradientUnits="userSpaceOnUse"
       y2="-15.675074"
       x2="-81.803864"
       y1="141.57013"
       x1="307.21893"
       id="linearGradient6836"
       xlink:href="#linearGradient6834" />
  </defs>
  <path
     id="path6690"
     d="M 114.586,276.30678 C 99.051036,275.3325 86.82039,272.07734 74.449252,265.62441 48.025642,251.84157 26.057554,226.43504 17.634893,199.91754 c -4.464333,-14.05523 -3.487274,-14.21263 3.251653,-0.5238 8.10155,16.45672 15.280317,26.82638 25.544088,36.89812 33.533668,32.90622 84.766746,40.91328 127.585166,19.93988 16.23043,-7.95003 33.8186,-23.31352 43.98013,-38.41721 10.3683,-15.41099 18.6561,-36.52973 19.60941,-49.96813 0.61442,-8.66139 -0.56012,-10.33403 -4.59007,-6.53646 l -2.61772,2.46677 -34.13563,0.37932 c -32.96855,0.36659 -128.427622,-1.46618 -134.069757,-2.57397 -2.604216,-0.51133 -2.686183,-0.70563 -1.41998,-3.36434 0.739128,-1.5519 1.654181,-7.53567 2.03348,-13.29724 2.337174,-35.50363 21.462314,-68.174352 53.123017,-90.748054 7.57481,-5.400776 26.55735,-15.192488 27.54091,-14.206376 0.28981,0.290575 -4.09234,4.03917 -9.73786,8.330465 -12.10279,9.199583 -17.29882,14.641574 -24.49097,25.650165 -14.955338,22.891241 -27.044894,58.75463 -27.044894,80.22809 0,5.62954 1.619994,6.98285 8.358733,6.98285 8.649964,0 9.880701,-1.89672 15.004251,-23.12369 6.63223,-27.47735 14.76008,-46.859733 24.01618,-57.271136 5.55877,-6.25254 8.7363,-10.962121 16.34786,-24.229781 2.43756,-4.248881 6.83002,-10.14139 9.76104,-13.094496 5.14595,-5.184651 5.34088,-5.278307 5.67123,-2.724321 0.42451,3.281989 -4.78209,18.416651 -13.83045,40.202374 -3.79917,9.147377 -7.56048,19.74789 -8.35849,23.55676 -1.70194,8.12352 -4.32042,30.69177 -5.33096,45.94682 l -0.7113,10.73747 h 10.49384 10.49389 l 0.59206,-7.59477 c 0.32561,-4.17716 1.08536,-17.02289 1.68832,-28.54605 2.40815,-46.024302 8.82339,-81.654193 16.30779,-90.572002 2.15863,-2.572083 3.478,-3.18463 6.85924,-3.18463 5.11308,0 9.72767,2.578185 12.42193,6.940175 2.37451,3.844337 8.6836,31.608192 10.36787,45.625028 0.64534,5.370527 1.44803,24.984249 1.78384,43.586009 l 0.6105,33.82142 10.5592,-0.69054 c 5.80759,-0.37971 10.96467,-1.06248 11.46016,-1.51705 1.28473,-1.17847 -1.07009,-37.68991 -3.0379,-47.10292 -1.7901,-8.56319 -6.69766,-23.308519 -14.8176,-44.521293 -5.64742,-14.753483 -10.43469,-31.552062 -9.31239,-32.677241 1.94603,-1.951088 17.48795,17.345476 19.99109,24.820514 0.8682,2.592737 5.58805,10.076967 10.48857,16.631608 14.85999,19.875889 21.25687,32.369572 26.21527,51.200552 1.47875,5.61609 3.63958,11.24458 4.80183,12.50768 2.02154,2.19705 2.06342,2.85563 0.96617,15.18965 -1.46516,16.46949 -3.78744,29.77581 -6.39943,36.66789 -1.13223,2.98757 -1.90154,5.58945 -1.70955,5.78192 0.67358,0.67534 19.79009,-24.25292 22.21934,-28.97437 7.31397,-14.21533 4.97498,-32.13472 -8.69039,-66.57873 C 256.16275,73.451023 251.12141,65.353894 238.28442,55.082028 221.64135,41.76464 218.75757,39.221345 219.87657,38.847389 c 2.12292,-0.709487 23.6892,9.073475 32.18918,14.601794 10.19567,6.631151 27.37726,23.80461 34.39553,34.379242 12.51447,18.855925 17.80509,34.225585 19.16236,55.667915 0.96532,15.2505 -0.3256,35.27754 -2.92734,45.42164 -7.27264,28.35322 -31.8954,58.81347 -59.59474,73.72323 -18.18399,9.78793 -29.30592,11.94732 -70.64048,13.71543 -27.56223,1.17901 -38.42765,1.1696 -57.87508,-0.0502 z m 69.95262,-118.07856 c 3.67879,-3.68836 5.26896,-10.76449 5.29737,-23.57289 0.0192,-9.09205 -6.47944,-84.949853 -8.13431,-94.936516 -0.83904,-5.063289 -2.64974,-6.546765 -4.27485,-3.502285 -4.12191,7.721934 -9.66639,108.267981 -6.50058,117.885361 2.39557,7.27758 8.59497,9.15677 13.61237,4.12633 z"
     style="opacity:1;fill:url(#linearGradient6836);fill-opacity:1;stroke-width:1.04620039" />
  <path
     id="path6692"
     d="m 160.96559,189.48573 c -3.06515,-1.27306 -3.753,-3.74482 -2.42163,-8.702 1.17646,-4.38043 6.02312,-10.21011 8.46496,-10.18183 3.44048,0.0398 6.08824,4.30553 6.08824,9.8085 0,6.45543 -6.5829,11.37991 -12.13157,9.07533 z"
     style="opacity:1;fill:#20323d;fill-opacity:0.94901961;stroke-width:1.04620039" />
  <path
     id="path6694"
     d="m 122.77079,189.99308 c -2.68165,-1.97293 -5.17431,-4.53043 -5.53926,-5.68324 -0.80019,-2.52779 1.38992,-7.03491 5.11301,-10.52231 2.58981,-2.42583 2.82756,-2.46508 4.53987,-0.74941 1.37669,1.37936 1.89389,4.04687 2.17211,11.20226 0.20091,5.16547 -0.0346,9.38009 -0.52243,9.36581 -0.48818,-0.0154 -3.08166,-1.64018 -5.7633,-3.61311 z"
     style="opacity:1;fill:#20323d;fill-opacity:0.94901961;stroke-width:1.04620039" />
  <path
     id="path6696"
     d="m 95.750618,212.45997 c -2.533353,-2.53994 -2.137072,-7.07319 1.004888,-11.49489 1.55075,-2.18233 2.712975,-2.61889 6.972394,-2.61889 h 5.11146 l 0.52239,4.19024 c 0.41806,3.35303 0.99214,4.25712 2.87333,4.52499 3.62117,0.51561 2.80268,2.20701 -2.08967,4.31835 -7.62942,3.29257 -11.870714,3.61083 -14.394792,1.0802 z"
     style="opacity:1;fill:#20323d;fill-opacity:0.94901961;stroke-width:1.04620039" />
  <path
     id="path6698"
     d="m 73.488871,188.74357 c -2.282844,-2.28878 2.642996,-13.53603 7.255157,-16.5659 3.425,-2.24994 5.141951,-1.44805 7.886983,3.68363 2.67341,4.99783 2.509649,9.90758 -0.398584,11.9499 -2.334907,1.63968 -13.343682,2.33589 -14.743556,0.93237 z"
     style="opacity:1;fill:#20323d;fill-opacity:0.94901961;stroke-width:1.04620039" />
  <path
     id="path6700"
     d="m 30.856919,192.1674 c -0.887029,-1.9519 -0.72831,-3.76287 0.711564,-8.11858 3.861916,-11.68233 8.749573,-15.87569 13.399494,-11.49599 1.298187,1.22278 3.387976,2.22325 4.643908,2.22325 2.709825,0 2.751655,0.24426 0.717416,4.18811 -2.299302,4.45796 -8.359193,8.68339 -12.861127,8.96782 -2.12161,0.13391 -4.260412,0.29289 -4.752866,0.35308 -0.49249,0.0602 -0.610039,0.81642 -0.26134,1.68067 l 1.268407,3.14265 c 1.064085,2.63645 -1.643934,1.74723 -2.865568,-0.94097 z"
     style="opacity:1;fill:#20323d;fill-opacity:0.94901961;stroke-width:1.04620039" />
  <path
     id="path6702"
     d="m 57.161486,218.00202 c -0.03075,-1.64493 -1.077705,-2.77692 -3.51872,-3.7995 -4.138221,-1.73357 -7.099825,-7.24938 -7.801193,-14.52929 -0.373337,-3.87616 -0.11354,-5.09836 1.190971,-5.60023 2.299961,-0.88491 8.999086,2.63432 11.469083,6.02494 2.620189,3.59682 2.847567,12.69686 0.42738,17.10434 -1.560386,2.84163 -1.729687,2.91823 -1.767521,0.79974 z"
     style="opacity:1;fill:#20323d;fill-opacity:0.94901961;stroke-width:1.04620039" />
  <path
     id="path6704"
     d="m 63.470965,237.51839 c -7.95726,-5.32751 -21.064402,-18.03606 -23.528013,-22.81256 -1.938328,-3.75798 -1.834598,-8.62593 0.198209,-9.29513 0.84231,-0.27744 1.306054,0.64408 1.306054,2.59493 0,3.72919 4.166158,10.42615 11.428673,18.37115 7.529781,8.23739 9.274009,8.51133 15.71747,2.46851 3.26912,-3.06582 6.104909,-4.83387 7.753039,-4.83387 4.058556,0 7.982707,4.13732 9.473039,9.98766 l 1.325127,5.20197 -4.302753,0.84613 c -11.740384,2.30876 -12.243232,2.24308 -19.370658,-2.52879 z"
     style="opacity:1;fill:#20323d;fill-opacity:0.94901961;stroke-width:1.04620039" />
  <path
     id="path6706"
     d="m 118.76535,247.05774 c -2.47204,-2.47848 -2.7077,-7.28635 -0.56107,-11.44822 3.0375,-5.88916 7.79726,-4.8721 11.07536,2.36659 1.08785,2.40218 1.98824,4.95687 2.00086,5.67708 0.0416,2.37933 -4.09492,5.49968 -7.29095,5.49968 -1.74139,0 -4.06328,-0.93116 -5.2242,-2.09513 z"
     style="opacity:1;fill:#20323d;fill-opacity:0.94901961;stroke-width:1.04620039" />
  <path
     id="path6708"
     d="m 170.30594,237.08752 c -7.59631,-7.94857 -5.904,-13.0761 4.31565,-13.0761 4.18715,0 4.92577,0.34111 5.8153,2.68711 0.56046,1.47788 1.019,4.59244 1.019,6.92119 0,5.11315 0.49638,5.01425 9.32097,-1.85647 6.86086,-5.34178 9.68047,-5.5438 4.70822,-0.33727 -5.06615,5.30482 -13.51649,10.394 -17.25867,10.394 -2.66498,0 -4.37323,-1.02065 -7.92047,-4.73244 z"
     style="opacity:1;fill:#20323d;fill-opacity:0.94901961;stroke-width:1.04620039" />
  <path
     id="path6710"
     d="m 187.23766,211.99815 c -5.62831,-1.51443 -11.006,-6.40153 -11.006,-10.00202 0,-2.97083 2.50487,-2.56889 6.63185,1.06409 4.87012,4.28714 6.95112,4.13757 6.95112,-0.49963 0,-7.7195 8.45475,-8.44742 11.9653,-1.03014 4.69473,9.91905 -1.09447,14.08617 -14.54227,10.4677 z"
     style="opacity:1;fill:#20323d;fill-opacity:0.94901961;stroke-width:1.04620039" />
  <path
     id="path6712"
     d="m 213.84597,195.01852 c -7.69115,-5.84822 -11.49326,-10.14241 -11.49326,-12.98083 0,-3.78109 3.72232,-8.30916 6.83057,-8.30916 3.13285,0 4.196,2.05439 5.06201,9.78184 0.3768,3.36344 1.57408,7.95959 2.66033,10.21372 2.32574,4.82623 1.84991,5.02755 -3.05965,1.29443 z"
     style="opacity:1;fill:#20323d;fill-opacity:0.94901961;stroke-width:1.04620039" />
  <path
     id="path6714"
     d="m 207.6052,215.31702 c -0.0535,-1.58241 2.89425,-6.50192 5.08899,-8.4933 1.9546,-1.77347 2.19666,-1.80036 2.19666,-0.24387 0,1.71362 -7.23007,10.38427 -7.28565,8.73733 z"
     style="opacity:1;fill:#20323d;fill-opacity:0.94901961;stroke-width:1.04620039" />
  <path
     id="path6716"
     d="m 141.63172,209.21521 c -4.29602,-4.66066 -5.37161,-5.30586 -8.16064,-4.89547 -2.18942,0.32222 -3.21246,0.0347 -3.21246,-0.89721 0,-1.69567 3.53054,-2.64273 8.34729,-2.23914 2.94048,0.24657 3.84799,-0.15204 4.69245,-2.06107 2.28099,-5.15606 10.06452,-3.62404 12.03737,2.36931 1.46681,4.45602 0.4376,8.40362 -2.87132,11.01318 -3.89909,3.075 -5.38076,2.62506 -10.83269,-3.2896 z"
     style="opacity:1;fill:#20323d;fill-opacity:0.94901961;stroke-width:1.04620039" />
  <path
     id="path6722"
     d="m 101.42347,180.50323 c -1.20441,-4.81119 2.81455,-10.46105 4.43312,-6.23212 0.63531,1.65984 -1.34785,7.48423 -2.86928,8.42698 -0.48299,0.29944 -1.18674,-0.68838 -1.56384,-2.19486 z"
     style="opacity:1;fill:#20323d;fill-opacity:0.94901961;stroke-width:1.04620039" />
  <path
     id="path6724"
     d="m 130.25862,255.54726 c 0,-0.66016 1.90596,-1.16251 4.44057,-1.17033 5.88881,-0.0193 23.51104,-3.70435 25.45918,-5.32539 0.84735,-0.70504 1.2989,-1.91346 1.00342,-2.68541 -0.58008,-1.51559 3.21259,-1.89387 7.48302,-0.74634 3.12726,0.84037 2.20866,1.99037 -3.68845,4.61779 -9.32497,4.15459 -34.69774,8.03731 -34.69774,5.30968 z"
     style="opacity:1;fill:#20323d;fill-opacity:0.94901961;stroke-width:1.04620039" />
  <path
     id="path6726"
     d="m 175.69087,20.09286 c -1.84373,-1.848523 -1.96628,-3.116101 -0.39539,-4.089485 0.63443,-0.393135 2.32128,0.456073 3.7486,1.887071 2.56503,2.571741 2.56961,2.60851 0.39539,3.178577 -1.24951,0.327604 -2.86877,-0.09414 -3.7486,-0.976163 z"
     style="opacity:1;fill:#1a1a1a;fill-opacity:0.94901961;stroke-width:1.04620039" />
  <path
     id="path6728"
     d="m 109.27874,229.40239 c -1.36936,-1.07996 -2.5616,-3.17756 -2.29135,-4.03132 0.49835,-1.57421 4.96395,-1.95388 6.50754,-0.55333 0.89982,0.81646 0.64672,1.77364 -0.90581,3.42558 -1.73337,1.8444 -2.22371,2.01607 -3.31038,1.15907 z"
     style="opacity:1;fill:#20323d;fill-opacity:0.94901961;stroke-width:0.36988768" />
  <path
     id="path6730"
     d="m 100.56115,256.14931 c -3.316539,-0.65975 -0.39047,-2.08491 4.21882,-2.05478 3.51802,0.0232 6.45033,0.98805 5.182,1.70544 -0.83884,0.47444 -7.52323,0.72287 -9.40082,0.34922 z"
     style="opacity:1;fill:#20323d;fill-opacity:0.94901961;stroke-width:0.36988768" />
  <path
     id="path6732"
     d="m 88.341348,252.42102 c -5.219573,-1.69387 -10.671654,-5.44772 -9.219318,-6.34767 1.873752,-1.16104 12.91339,4.37053 12.91339,6.47041 0,0.75077 -1.11676,0.71365 -3.694072,-0.12269 z"
     style="opacity:1;fill:#20323d;fill-opacity:0.94901961;stroke-width:0.36988768" />
  <path
     id="path6734"
     d="m 31.356144,163.53067 c -1.978552,-0.41972 -2.05864,-0.68559 -0.422026,-1.40116 1.756204,-0.7679 6.714101,-0.86325 8.737758,-0.16786 1.510887,0.51905 1.742274,0.93784 0.738855,1.33726 -0.995763,0.39638 -7.494674,0.56285 -9.054587,0.23192 z"
     style="opacity:1;fill:#20323d;fill-opacity:0.94901961;stroke-width:0.36988768" />
</svg>
