<?xml version="1.0" encoding="UTF-8" standalone="no"?>
<svg
   xmlns:dc="http://purl.org/dc/elements/1.1/"
   xmlns:cc="http://creativecommons.org/ns#"
   xmlns:rdf="http://www.w3.org/1999/02/22-rdf-syntax-ns#"
   xmlns:svg="http://www.w3.org/2000/svg"
   xmlns="http://www.w3.org/2000/svg"
   xmlns:xlink="http://www.w3.org/1999/xlink"
   viewBox="0 0 75.590554 75.59055"
   height="2cm"
   width="2cm"
   id="svg297"
   version="1.1">
  <metadata
     id="metadata303">
    <rdf:RDF>
      <cc:Work
         rdf:about="">
        <dc:format>image/svg+xml</dc:format>
        <dc:type
           rdf:resource="http://purl.org/dc/dcmitype/StillImage" />
        <dc:title></dc:title>
      </cc:Work>
    </rdf:RDF>
  </metadata>
  <defs
     id="defs301">
    <linearGradient
       id="linearGradient7246">
      <stop
         id="stop7242"
         offset="0"
         style="stop-color:#1e323d;stop-opacity:1;" />
      <stop
         id="stop7244"
         offset="1"
         style="stop-color:#1e323d;stop-opacity:0;" />
    </linearGradient>
    <linearGradient
       gradientUnits="userSpaceOnUse"
       y2="-12.577412"
       x2="93.325424"
       y1="69.94191"
       x1="57.959999"
       id="linearGradient7248"
       xlink:href="#linearGradient7246" />
    <linearGradient
       gradientUnits="userSpaceOnUse"
       y2="-12.577412"
       x2="93.325424"
       y1="69.94191"
       x1="57.959999"
       id="linearGradient7250"
       xlink:href="#linearGradient7246" />
    <linearGradient
       gradientUnits="userSpaceOnUse"
       y2="-12.577412"
       x2="93.325424"
       y1="69.94191"
       x1="57.959999"
       id="linearGradient7252"
       xlink:href="#linearGradient7246" />
    <linearGradient
       gradientUnits="userSpaceOnUse"
       y2="-12.577412"
       x2="93.325424"
       y1="69.94191"
       x1="57.959999"
       id="linearGradient7254"
       xlink:href="#linearGradient7246" />
    <linearGradient
       gradientUnits="userSpaceOnUse"
       y2="-12.577412"
       x2="93.325424"
       y1="69.94191"
       x1="57.959999"
       id="linearGradient7256"
       xlink:href="#linearGradient7246" />
    <linearGradient
       gradientUnits="userSpaceOnUse"
       y2="-12.577412"
       x2="93.325424"
       y1="69.94191"
       x1="57.959999"
       id="linearGradient7258"
       xlink:href="#linearGradient7246" />
  </defs>
  <path
     id="path7182"
     d="m 34.016923,18.619372 c 0.109109,-0.368207 0.912178,-1.537578 1.784543,-2.598635 l 1.586213,-1.929131 0.660201,-5.875048 c 0.363104,-3.2312809 0.785554,-6.0586765 0.938771,-6.2831057 0.153218,-0.2244291 1.138668,-0.8002525 1.465088,-0.7287253 0.930662,0.203931 9.420966,5.6687792 11.00808,7.085435 2.302472,2.05518 1.630126,2.615953 -4.531114,5.913907 l -5.309458,2.842009 -1.610966,2.661321 -1.610974,2.661316 -2.289409,-1.539953 c -2.087764,-1.404317 -2.271942,-1.598926 -2.091031,-2.209427 z m 7.927821,-4.24605 C 43.771165,13.86763 47.696736,11.574202 48.083988,10.7866 48.525919,9.887797 47.540331,8.589128 45.244098,7.044586 43.000609,5.5355217 41.364779,5.0758417 40.724765,5.7746234 c -0.556932,0.6080723 -1.257759,5.9469236 -0.974249,7.4218296 0.254896,1.326063 0.731711,1.581801 2.194228,1.176869 z"
     style="opacity:1;fill:url(#linearGradient7258);fill-opacity:1;stroke-width:0.32034615" />
  <path
     id="path7184"
     d="m 29.193044,27.700383 4.851916,-7.106957 1.469485,0.988438 1.469477,0.988431 -4.851916,7.106956 -4.851916,7.106957 -1.469477,-0.98843 -1.469485,-0.988438 z"
     style="opacity:1;fill:url(#linearGradient7256);fill-opacity:1;stroke-width:0.32034615" />
  <path
     id="path7186"
     d="M 10.202451,54.636001 C 9.7254551,53.149657 9.1398044,50.999079 8.9010056,49.856939 l -0.4341693,-2.07661 3.7355417,-5.471723 3.735542,-5.471721 1.538753,1.029726 c 2.73988,1.833617 2.744779,1.832992 4.382257,-0.565542 l 1.424519,-2.086597 1.884243,1.380268 1.884244,1.380268 -1.404907,2.223783 -1.404906,2.223782 2.126616,1.430451 2.126624,1.430456 -3.82536,5.603284 -3.825359,5.603284 -4.264172,0.392576 c -2.345298,0.215916 -4.544638,0.406803 -4.887427,0.42419 -0.511066,0.02593 -0.77935,-0.454804 -1.490515,-2.670827 z m 7.775627,-6.056264 c 1.858129,-2.447055 3.426333,-4.633015 3.484904,-4.857682 0.05858,-0.224662 -0.241336,-0.642453 -0.666457,-0.928407 -0.686237,-0.461591 -0.835442,-0.428387 -1.329955,0.295962 -1.150698,1.685511 -6.17982,10.246916 -6.452827,10.985086 -0.255675,0.691289 -0.189961,0.67731 0.650757,-0.138416 0.51434,-0.499042 2.455447,-2.909487 4.313578,-5.356543 z"
     style="opacity:1;fill:url(#linearGradient7254);fill-opacity:1;stroke-width:0.32034615" />
  <path
     id="path7188"
     d="m 47.004122,39.872906 4.762064,-6.975346 1.335894,0.898578 1.335885,0.898572 -4.762065,6.975346 -4.762066,6.975347 -1.335885,-0.898573 -1.335893,-0.898577 z"
     style="opacity:1;fill:url(#linearGradient7252);fill-opacity:1;stroke-width:0.32034615" />
  <path
     id="path7190"
     d="m 52.353045,31.85876 -0.947793,-0.789652 1.908341,-2.628694 1.908341,-2.628694 0.430129,-4.765449 c 0.587738,-6.511585 0.721704,-7.118565 1.607729,-7.28413 1.004537,-0.187711 12.445751,7.476305 12.834793,8.59752 0.246214,0.709568 0.06502,0.836618 -5.242018,3.675774 l -5.497041,2.940806 -1.767174,2.748297 -1.767174,2.748295 -1.260171,-0.912207 c -0.693083,-0.501714 -1.686668,-1.267549 -2.207948,-1.701853 z m 8.739905,-6.091292 c 2.885172,-1.299583 4.746951,-2.512128 4.959736,-3.230203 0.241608,-0.81536 -0.778113,-1.790472 -3.872055,-3.702668 -3.029294,-1.872238 -3.833724,-1.898375 -4.221461,-0.137148 -0.357137,1.622254 -0.630419,5.998987 -0.436033,6.983263 0.234166,1.185663 1.084275,1.206323 3.569813,0.08675 z"
     style="opacity:1;fill:url(#linearGradient7250);fill-opacity:1;stroke-width:0.32034615" />
  <path
     id="path7192"
     d="m 30.336251,60.175667 c 3.09151,-4.651052 4.283688,-6.642651 4.207185,-7.028502 -0.142217,-0.717207 -1.657995,-1.711791 -2.226515,-1.460942 -0.248521,0.10966 -2.46869,2.966151 -4.9337,6.347768 -4.22783,5.799948 -4.51057,6.129066 -4.988833,5.807366 -0.298384,-0.200705 -0.424541,-0.690951 -0.306605,-1.191477 0.225115,-0.955413 8.40775,-12.982129 9.400528,-13.816778 0.617383,-0.519033 0.70953,-0.485934 3.412793,1.22589 l 2.778278,1.759318 1.611018,-2.359778 1.611019,-2.359777 2.003835,1.347864 2.003836,1.347863 -1.617306,2.368986 -1.617305,2.368985 2.678394,1.8016 c 2.629233,1.768532 2.674711,1.817204 2.478004,2.65205 -0.111521,0.473294 -2.269198,3.880801 -4.865347,7.68357 l -4.664963,6.833115 -0.860592,-0.204282 c -0.473327,-0.112357 -0.972997,-0.27989 -1.110378,-0.372299 -0.148273,-0.09973 1.577764,-2.844951 4.247182,-6.755043 l 4.496959,-6.587024 -0.510163,-0.7178 c -0.431011,-0.606432 -1.379186,-1.006215 -2.004708,-0.845255 -0.04878,0.01257 -2.137542,2.879353 -4.641646,6.370663 l -4.552927,6.347833 -0.92464,-0.501594 -0.924642,-0.501591 4.365145,-6.402456 c 2.40063,-3.521483 4.369448,-6.597798 4.37485,-6.836458 0.01012,-0.447607 -0.519825,-0.990583 -1.602322,-1.64172 -0.615511,-0.370246 -0.648973,-0.334301 -3.289392,3.533315 -1.467155,2.149049 -3.607638,5.116757 -4.75656,6.594954 l -2.088997,2.687599 -0.747659,-0.502907 -0.747653,-0.502902 z"
     style="opacity:1;fill:url(#linearGradient7248);fill-opacity:1;stroke-width:0.32034615" />
</svg>
