<?xml version="1.0" encoding="UTF-8" standalone="no"?>
<svg
   xmlns:dc="http://purl.org/dc/elements/1.1/"
   xmlns:cc="http://creativecommons.org/ns#"
   xmlns:rdf="http://www.w3.org/1999/02/22-rdf-syntax-ns#"
   xmlns:svg="http://www.w3.org/2000/svg"
   xmlns="http://www.w3.org/2000/svg"
   xmlns:xlink="http://www.w3.org/1999/xlink"
   id="svg8"
   version="1.1"
   viewBox="0 0 50 50"
   height="5cm"
   width="5cm">
  <defs
     id="defs2">
    <linearGradient
       id="linearGradient924">
      <stop
         id="stop920"
         offset="0"
         style="stop-color:#000000;stop-opacity:1;" />
      <stop
         id="stop922"
         offset="1"
         style="stop-color:#000000;stop-opacity:0;" />
    </linearGradient>
    <linearGradient
       id="linearGradient740">
      <stop
         id="stop736"
         offset="0"
         style="stop-color:#4d4d4d;stop-opacity:1;" />
      <stop
         id="stop738"
         offset="1"
         style="stop-color:#4d4d4d;stop-opacity:0;" />
    </linearGradient>
    <linearGradient
       gradientUnits="userSpaceOnUse"
       y2="286.79333"
       x2="1014.92"
       y1="759.38068"
       x1="-357.51343"
       id="linearGradient742"
       xlink:href="#linearGradient924" />
    <linearGradient
       gradientUnits="userSpaceOnUse"
       y2="286.79333"
       x2="1014.92"
       y1="759.38068"
       x1="-357.51343"
       id="linearGradient744"
       xlink:href="#linearGradient924" />
    <linearGradient
       gradientTransform="translate(-13.758334,1.5875001)"
       gradientUnits="userSpaceOnUse"
       y2="265.4783"
       x2="84.584763"
       y1="299.02063"
       x1="7.3438654"
       id="linearGradient752"
       xlink:href="#linearGradient924" />
    <linearGradient
       gradientTransform="translate(-4.2333333,1.0583333)"
       gradientUnits="userSpaceOnUse"
       y2="266.00748"
       x2="75.059761"
       y1="299.5498"
       x1="-2.1811352"
       id="linearGradient754"
       xlink:href="#linearGradient924" />
    <linearGradient
       gradientTransform="translate(-1.0583332,1.0583333)"
       gradientUnits="userSpaceOnUse"
       y2="266.00748"
       x2="71.884758"
       y1="299.5498"
       x1="-5.3561354"
       id="linearGradient756"
       xlink:href="#linearGradient924" />
    <linearGradient
       y2="75.766411"
       x2="58.779385"
       y1="377.0173"
       x1="474.30853"
       gradientUnits="userSpaceOnUse"
       id="linearGradient876"
       xlink:href="#linearGradient740" />
    <linearGradient
       y2="75.766411"
       x2="58.779385"
       y1="377.0173"
       x1="474.30853"
       gradientUnits="userSpaceOnUse"
       id="linearGradient878"
       xlink:href="#linearGradient740" />
    <linearGradient
       y2="75.766411"
       x2="58.779385"
       y1="377.0173"
       x1="474.30853"
       gradientUnits="userSpaceOnUse"
       id="linearGradient880"
       xlink:href="#linearGradient740" />
    <linearGradient
       y2="75.766411"
       x2="58.779385"
       y1="377.0173"
       x1="474.30853"
       gradientUnits="userSpaceOnUse"
       id="linearGradient882"
       xlink:href="#linearGradient740" />
    <linearGradient
       y2="75.766411"
       x2="58.779385"
       y1="377.0173"
       x1="474.30853"
       gradientUnits="userSpaceOnUse"
       id="linearGradient884"
       xlink:href="#linearGradient740" />
    <linearGradient
       y2="75.766411"
       x2="58.779385"
       y1="377.0173"
       x1="474.30853"
       gradientUnits="userSpaceOnUse"
       id="linearGradient886"
       xlink:href="#linearGradient740" />
    <linearGradient
       y2="75.766411"
       x2="58.779385"
       y1="377.0173"
       x1="474.30853"
       gradientUnits="userSpaceOnUse"
       id="linearGradient888"
       xlink:href="#linearGradient740" />
    <linearGradient
       gradientTransform="translate(-1.5875,1.5875)"
       gradientUnits="userSpaceOnUse"
       y2="264.41998"
       x2="69.768089"
       y1="297.96231"
       x1="-7.4728017"
       id="linearGradient926"
       xlink:href="#linearGradient924" />
    <linearGradient
       gradientTransform="translate(-1.5875,1.5875)"
       gradientUnits="userSpaceOnUse"
       y2="264.41998"
       x2="69.768089"
       y1="297.96231"
       x1="-7.4728017"
       id="linearGradient928"
       xlink:href="#linearGradient924" />
    <linearGradient
       gradientTransform="translate(-1.5875,1.5875)"
       gradientUnits="userSpaceOnUse"
       y2="264.41998"
       x2="69.768089"
       y1="297.96231"
       x1="-7.4728017"
       id="linearGradient930"
       xlink:href="#linearGradient924" />
    <linearGradient
       gradientTransform="translate(-2.6458334,-1.0583331)"
       gradientUnits="userSpaceOnUse"
       y2="267.06583"
       x2="70.826424"
       y1="300.60812"
       x1="-6.4144688"
       id="linearGradient936"
       xlink:href="#linearGradient924" />
  </defs>
  <metadata
     id="metadata5">
    <rdf:RDF>
      <cc:Work
         rdf:about="">
        <dc:format>image/svg+xml</dc:format>
        <dc:type
           rdf:resource="http://purl.org/dc/dcmitype/StillImage" />
        <dc:title></dc:title>
      </cc:Work>
    </rdf:RDF>
  </metadata>
  <g
     transform="translate(0,-247)"
     id="layer1">
    <path
       id="path278"
       d="m 8.8026834,287.26704 c -0.232754,-0.12674 -0.539301,-0.40051 -0.681211,-0.60839 -0.2480047,-0.36327 -0.2580217,-0.59409 -0.2580217,-5.94431 0,-5.35023 0.01,-5.58105 0.2580217,-5.94432 0.742918,-1.08822 2.4669146,-1.09625 3.1819556,-0.0148 0.249978,0.37808 0.259694,0.601 0.259694,5.95914 0,5.35813 -0.0097,5.58105 -0.259694,5.95912 -0.508181,0.76859 -1.6720306,1.04484 -2.5007446,0.59358 z"
       style="fill:url(#linearGradient756);fill-opacity:1;stroke-width:0.12271038" />
    <path
       id="path280"
       d="m 16.09499,287.53431 c -0.232754,-0.12674 -0.539297,-0.40051 -0.681209,-0.60839 -0.252523,-0.36989 -0.258033,-0.60551 -0.258509,-11.04863 -3.14e-4,-10.0906 4.924731,-14.11978 5.148014,-14.50189 0.324059,-0.55456 0,0 0,0 0.646127,0.10826 0,0 0,0 9.160579,-9.34271 -1.790288,2.37594 -1.813609,9.32605 -0.03435,10.23599 0.359854,15.85543 0.10606,16.23928 -0.508179,0.76859 -1.67203,1.04483 -2.500744,0.59358 z"
       style="fill:url(#linearGradient754);fill-opacity:1;stroke-width:0.12271038" />
    <path
       id="path282"
       d="m 20.689227,286.9944 c -0.882674,-0.48064 -0.939178,-0.6923 -0.939719,-3.52007 -5.02e-4,-2.84996 0.06691,-3.12582 0.8731,-3.57081 0.88147,-0.48654 1.886063,-0.28053 2.559339,0.52485 0.25198,0.30142 0.267717,0.47484 0.267717,2.94996 0,2.42149 -0.02057,2.66082 -0.259694,3.02249 -0.508178,0.76859 -1.672031,1.04483 -2.500743,0.59358 z"
       style="fill:url(#linearGradient752);fill-opacity:1;stroke-width:0.12271038" />
    <g
       style="fill:url(#linearGradient744);fill-opacity:1"
       id="g642"
       transform="matrix(0.05628025,0,0,0.07097593,13.706476,246.71039)">
      <path
         id="path636"
         d="m 356.023,326.658 c -1.68,0 -3.387,-0.367 -5.002,-1.142 -5.768,-2.767 -8.201,-9.686 -5.434,-15.454 L 463.217,64.851 c 2.767,-5.768 9.687,-8.201 15.455,-5.434 5.768,2.767 8.201,9.686 5.434,15.454 l -117.631,245.21 c -1.992,4.153 -6.136,6.577 -10.452,6.577 z"
         style="fill:url(#linearGradient884);fill-opacity:1.0" />
      <path
         id="path638"
         d="m 358.032,322.465 c -2.054,0 -4.134,-0.547 -6.018,-1.695 L 237.881,251.194 c -5.463,-3.33 -7.191,-10.458 -3.861,-15.921 3.33,-5.462 10.453,-7.191 15.919,-3.861 l 114.133,69.576 c 5.463,3.33 7.191,10.458 3.861,15.921 -2.182,3.58 -5.995,5.556 -9.901,5.556 z"
         style="fill:url(#linearGradient886);fill-opacity:1.0" />
      <path
         id="path640"
         d="m 128.537,392.851 c -2.594,0 -5.202,-0.868 -7.36,-2.646 -4.937,-4.069 -5.64,-11.369 -1.571,-16.306 L 234.972,233.935 c 4.07,-4.937 11.368,-5.64 16.306,-1.571 4.937,4.069 5.64,11.369 1.571,16.306 L 137.484,388.634 c -2.292,2.778 -5.606,4.217 -8.947,4.217 z"
         style="fill:url(#linearGradient888);fill-opacity:1.0" />
    </g>
    <g
       style="fill:url(#linearGradient742);fill-opacity:1"
       id="g658"
       transform="matrix(0.05628025,0,0,0.07097593,13.706476,246.71039)">
      <circle
         id="circle650"
         r="28.959"
         cy="241.3"
         cx="243.907"
         style="fill:url(#linearGradient876);fill-opacity:1.0" />
      <circle
         id="circle652"
         r="28.959"
         cy="382.228"
         cx="129.772"
         style="fill:url(#linearGradient878);fill-opacity:1.0" />
      <circle
         id="circle654"
         r="28.959"
         cy="310.884"
         cx="358.04099"
         style="fill:url(#linearGradient880);fill-opacity:1.0" />
      <circle
         id="circle656"
         r="28.959"
         cy="74.320999"
         cx="472.17499"
         style="fill:url(#linearGradient882);fill-opacity:1.0" />
    </g>
    <path
       id="path912"
       d="m 26.664682,291.88877 c -0.04656,-0.24818 -0.0013,-1.16456 0.06334,-1.28449 0.06836,-0.12669 0.300159,-0.23657 0.588833,-0.27911 l 0.224422,-0.0331 v -4.13517 -4.13518 l -0.2008,0.0272 c -0.11044,0.0149 -0.314812,0.0422 -0.454163,0.0605 l -0.25336,0.0333 0.01881,-0.70369 c 0.0109,-0.40773 0.04178,-0.7449 0.0734,-0.80168 0.0945,-0.16967 0.580702,-0.2686 1.713796,-0.34872 0.376793,-0.0266 1.075902,-0.0487 1.55357,-0.0489 l 0.868487,-5.3e-4 -0.02178,0.75576 c -0.01199,0.41566 -0.03748,0.77144 -0.05666,0.79063 -0.01918,0.0192 -0.190203,0.0427 -0.38005,0.0523 l -0.34517,0.0174 -0.02686,0.33768 c -0.01476,0.18572 -0.0532,1.25191 -0.08539,2.3693 -0.04677,1.62343 -0.04661,2.33539 7.94e-4,3.54353 0.03261,0.83154 0.0703,1.61069 0.08375,1.73143 l 0.02445,0.21952 0.267303,0.0299 c 0.147016,0.0165 0.347033,0.0418 0.444479,0.0563 l 0.177176,0.0264 -7.94e-4,0.73998 c -2.65e-4,0.407 -0.01635,0.76451 -0.03544,0.79447 -0.0421,0.0661 -0.736401,0.13634 -2.271985,0.22994 -0.632827,0.0386 -1.3276,0.0837 -1.543941,0.10036 l -0.393348,0.0302 z"
       style="fill:url(#linearGradient936);fill-opacity:1;stroke-width:0.04724703" />
    <path
       id="path914"
       d="m 31.342649,290.54797 c -0.178444,-0.20734 -0.344683,-0.68395 -0.36702,-1.05225 -0.02165,-0.35683 -0.02673,-0.3526 0.553014,-0.45978 0.739803,-0.13675 1.364826,-0.50714 1.628849,-0.96522 0.282324,-0.48983 0.103192,-0.78745 -0.997306,-1.657 -0.765997,-0.60524 -0.975872,-0.83003 -1.107573,-1.18625 -0.08331,-0.22535 -0.09252,-0.29537 -0.07806,-0.59347 0.02967,-0.61179 0.27148,-1.09033 0.782149,-1.54783 0.765809,-0.6861 2.051091,-1.21261 2.652812,-1.08673 0.150077,0.0313 0.207125,0.0702 0.287428,0.19537 0.152001,0.23697 0.340272,0.75859 0.340272,0.94273 0,0.1931 -0.02751,0.21632 -0.385941,0.32579 -0.736265,0.22484 -1.228139,0.49283 -1.45459,0.79249 -0.09804,0.12975 -0.124267,0.20114 -0.124267,0.3383 0,0.0956 0.02564,0.22229 0.05698,0.2815 0.09593,0.18125 0.571416,0.61845 0.978048,0.89928 0.566096,0.39097 0.908809,0.80167 1.133623,1.3585 0.08154,0.20196 0.09377,0.28652 0.09405,0.65004 3.93e-4,0.38726 -0.0084,0.43912 -0.118454,0.70773 -0.152034,0.37099 -0.402173,0.70351 -0.768136,1.02109 -0.726463,0.63045 -1.75724,1.08783 -2.606007,1.15636 l -0.370294,0.0299 z"
       style="fill:url(#linearGradient930);fill-opacity:1;stroke-width:0.04036171" />
    <path
       id="path916"
       d="m 36.848467,290.88635 c -0.127416,-0.14138 -0.311775,-0.68119 -0.371041,-1.08641 -0.03687,-0.25206 -0.06149,-2.04116 -0.07734,-5.6193 -0.02249,-5.07681 -0.02037,-5.25037 0.06412,-5.27636 0.04806,-0.0148 0.246837,-0.0828 0.441732,-0.15118 0.384638,-0.13495 1.104704,-0.25993 1.500092,-0.26037 l 0.248047,-2.7e-4 v 5.28437 5.28437 l 0.282223,0.5152 0.282226,0.51521 -0.152294,0.13555 c -0.322824,0.28735 -1.333334,0.68828 -1.829565,0.7259 -0.260421,0.0197 -0.319434,0.01 -0.388199,-0.0667 z"
       style="fill:url(#linearGradient928);fill-opacity:1;stroke-width:0.04724703" />
    <path
       id="path918"
       d="m 42.38282,289.55749 c -0.573639,-0.0522 -1.033349,-0.17434 -1.502898,-0.39905 -0.77529,-0.37106 -1.437927,-1.17501 -1.541382,-1.8701 -0.02357,-0.15838 -0.04324,-0.69512 -0.04371,-1.19275 l -9.98e-4,-0.90478 0.279497,-0.45727 c 0.509819,-0.83408 1.00779,-1.30581 1.756363,-1.66381 0.505324,-0.24166 0.818266,-0.3148 1.628692,-0.38065 0.835409,-0.0678 1.34187,-0.0357 1.717346,0.1093 0.831535,0.32099 1.154378,0.74835 1.146237,1.51731 -0.01101,1.04092 -0.974181,2.15172 -2.439262,2.81318 -1.319258,0.59562 -1.193863,0.52554 -1.088564,0.60835 0.375912,0.29561 1.783437,0.3112 2.89062,0.0321 0.269851,-0.068 0.510963,-0.12372 0.535803,-0.12372 0.06945,0 0.05447,0.47859 -0.02467,0.78819 -0.143274,0.56045 -0.353471,0.82147 -0.75725,0.94032 -0.52115,0.15339 -1.843887,0.24834 -2.555969,0.18345 z m -0.221005,-3.43472 c 0.588166,-0.26743 1.210342,-0.78708 1.419829,-1.18585 0.174964,-0.33306 0.145765,-0.77089 -0.05865,-0.87932 -0.05114,-0.0271 -0.228377,-0.0504 -0.393835,-0.0517 -0.257491,-0.002 -0.342882,0.0177 -0.592699,0.13712 -0.531943,0.25424 -0.970566,0.81291 -1.119295,1.42566 -0.07988,0.32912 -0.08604,0.68787 -0.01231,0.71896 0.112904,0.0477 0.452061,-0.0263 0.756965,-0.16486 z"
       style="fill:url(#linearGradient926);fill-opacity:1;stroke-width:0.04223711" />
  </g>
</svg>
