<?xml version="1.0" encoding="UTF-8" standalone="no"?>
<svg
   xmlns:dc="http://purl.org/dc/elements/1.1/"
   xmlns:cc="http://creativecommons.org/ns#"
   xmlns:rdf="http://www.w3.org/1999/02/22-rdf-syntax-ns#"
   xmlns:svg="http://www.w3.org/2000/svg"
   xmlns="http://www.w3.org/2000/svg"
   viewBox="0 0 71.400002 57.959999"
   height="57.959999"
   width="71.400002"
   id="svg297"
   version="1.1">
  <metadata
     id="metadata303">
    <rdf:RDF>
      <cc:Work
         rdf:about="">
        <dc:format>image/svg+xml</dc:format>
        <dc:type
           rdf:resource="http://purl.org/dc/dcmitype/StillImage" />
        <dc:title></dc:title>
      </cc:Work>
    </rdf:RDF>
  </metadata>
  <defs
     id="defs301" />
  <path
     id="path5331"
     d="m 28.360968,54.227519 c -3.042049,-1.525117 -3.741291,-5.314863 -1.685571,-9.135508 1.089173,-2.024297 1.165584,-2.518015 0.880562,-5.689843 -0.302169,-3.36254 -0.383035,-3.546315 -2.538258,-5.767695 -2.934146,-3.024203 -4.246962,-5.71845 -4.539147,-9.315495 -0.220618,-2.715986 -0.304723,-2.896398 -1.215336,-2.606741 -1.980188,0.629882 -6.725245,0.769278 -8.333373,0.244803 -5.784442,-1.886506 -5.1196143,-5.908202 1.189055,-7.192927 3.35423,-0.683077 6.319762,-0.2392 8.407311,1.258391 1.268623,0.910088 1.334959,0.9134 1.981445,0.09886 1.631282,-2.055368 1.641173,-2.329798 0.140938,-3.91132 -1.800412,-1.897977 -2.738379,-3.9904831 -2.738379,-6.109061 0,-1.9413969 1.262697,-2.7688976 2.060053,-1.3500466 0.271708,0.4834989 1.232982,1.6362705 2.136166,2.561717 2.223215,2.2780074 4.595776,2.8806766 8.616612,2.1887353 2.388563,-0.4110391 3.846996,-0.4004973 6.494015,0.046953 3.338903,0.5644003 3.470144,0.5497383 5.992747,-0.6698988 1.864101,-0.9012629 2.866503,-1.7469089 3.615864,-3.0504262 1.355763,-2.3583431 2.383444,-2.1912698 2.574051,0.4184508 0.152781,2.0918094 -1.174749,4.9599155 -3.087518,6.6705235 l -0.949943,0.849543 1.002596,1.511446 1.002606,1.511445 2.25489,-1.165141 c 6.23044,-3.219368 16.149006,0.8233 11.8231,4.818933 -1.934197,1.786532 -7.818398,2.45531 -11.310684,1.285534 -0.914414,-0.306288 -0.994177,-0.132439 -1.22116,2.661985 -0.290806,3.58003 -1.616507,6.482185 -4.067441,8.904203 -1.725636,1.705277 -1.809547,1.93036 -2.105114,5.646788 -0.282621,3.553574 -0.20946,4.077494 0.893017,6.39464 1.783061,3.747568 1.463778,6.184924 -1.112256,8.49069 -0.909805,0.814353 -1.783623,0.930808 -7.825846,1.042961 -5.620729,0.104327 -7.067902,-0.0071 -8.335002,-0.642484 z m 13.27159,-2.722066 c 1.6354,-1.13197 1.331025,-3.51893 -1.289804,-10.114935 -1.886918,-4.748937 -2.32139,-6.366608 -2.319285,-8.635417 0.0041,-4.531589 0.67948,-6.111152 3.935751,-9.206199 3.156746,-3.000443 3.730561,-4.114683 3.296478,-6.401233 -0.590522,-3.110597 -4.243784,-5.022954 -9.587215,-5.018561 -5.737501,0.005 -9.714808,2.593383 -9.719641,6.326107 -10e-4,1.060673 0.712556,2.035567 3.414783,4.662958 3.762902,3.65869 4.013489,4.252292 4.013489,9.507195 0,2.764677 -0.341211,4.135363 -2.344043,9.416298 -3.462031,9.128449 -2.956881,10.178145 4.898108,10.178145 3.474507,0 4.93339,-0.182785 5.701379,-0.714358 z M 27.783392,27.69407 c 0.306286,-0.364692 0.488597,-1.13909 0.405146,-1.720868 -0.117109,-0.816343 -0.492572,-1.090328 -1.645036,-1.200401 -1.289713,-0.12318 -1.536448,0.02736 -1.809883,1.10392 -0.490845,1.932612 1.804335,3.300309 3.049773,1.817349 z M 46.39028,27.428849 c 1.192866,-1.178793 0.524789,-2.742867 -1.171582,-2.742867 -1.78863,0 -2.473393,2.331201 -0.975211,3.319979 0.786708,0.519214 1.131057,0.42664 2.146793,-0.577112 z"
     style="opacity:1;fill:#20323d;fill-opacity:0.94901961;stroke-width:0.46162841" />
  <path
     id="path6454"
     d="m 33.841987,49.61467 c -0.923805,-0.163725 -1.477184,-0.884924 -1.614623,-2.10428 -0.09769,-0.866738 -0.02228,-1.141661 0.423801,-1.544923 0.472146,-0.426828 0.888622,-0.490559 3.205772,-0.490559 1.696984,0 2.766662,0.103624 2.948512,0.285634 0.156961,0.157098 0.340244,0.772348 0.407295,1.367222 0.100245,0.889368 0.01893,1.201257 -0.457549,1.754939 -0.518935,0.603019 -0.771849,0.682426 -2.421408,0.760245 -1.013072,0.04779 -2.134382,0.03507 -2.4918,-0.02828 z"
     style="fill:#20323d;fill-opacity:0.94901961;stroke-width:0.24559322" />
</svg>
