<?xml version="1.0" encoding="UTF-8" standalone="no"?>
<svg
   xmlns:dc="http://purl.org/dc/elements/1.1/"
   xmlns:cc="http://creativecommons.org/ns#"
   xmlns:rdf="http://www.w3.org/1999/02/22-rdf-syntax-ns#"
   xmlns:svg="http://www.w3.org/2000/svg"
   xmlns="http://www.w3.org/2000/svg"
   xmlns:xlink="http://www.w3.org/1999/xlink"
   viewBox="0 0 75.590554 75.59055"
   height="2cm"
   width="2cm"
   id="svg297"
   version="1.1">
  <metadata
     id="metadata303">
    <rdf:RDF>
      <cc:Work
         rdf:about="">
        <dc:format>image/svg+xml</dc:format>
        <dc:type
           rdf:resource="http://purl.org/dc/dcmitype/StillImage" />
        <dc:title></dc:title>
      </cc:Work>
    </rdf:RDF>
  </metadata>
  <defs
     id="defs301">
    <linearGradient
       id="linearGradient7960">
      <stop
         id="stop7956"
         offset="0"
         style="stop-color:#1e323d;stop-opacity:1;" />
      <stop
         id="stop7958"
         offset="1"
         style="stop-color:#1e323d;stop-opacity:0;" />
    </linearGradient>
    <linearGradient
       id="linearGradient7327">
      <stop
         id="stop7323"
         offset="0"
         style="stop-color:#1e323d;stop-opacity:1;" />
      <stop
         id="stop7325"
         offset="1"
         style="stop-color:#1e323d;stop-opacity:0;" />
    </linearGradient>
    <linearGradient
       id="linearGradient7246">
      <stop
         id="stop7242"
         offset="0"
         style="stop-color:#1e323d;stop-opacity:1;" />
      <stop
         id="stop7244"
         offset="1"
         style="stop-color:#1e323d;stop-opacity:0;" />
    </linearGradient>
    <linearGradient
       gradientUnits="userSpaceOnUse"
       y2="-12.577412"
       x2="93.325424"
       y1="69.94191"
       x1="57.959999"
       id="linearGradient7254"
       xlink:href="#linearGradient7246" />
    <linearGradient
       gradientUnits="userSpaceOnUse"
       y2="-6.4375811"
       x2="-7.858983"
       y1="70.678688"
       x1="3.6838982"
       id="linearGradient7339"
       xlink:href="#linearGradient7327" />
    <linearGradient
       gradientUnits="userSpaceOnUse"
       y2="42.942356"
       x2="-30.56427"
       y1="-16.796902"
       x1="81.27317"
       id="linearGradient7962"
       xlink:href="#linearGradient7960" />
  </defs>
  <path
     id="path7874"
     d="m 24.134698,63.940653 c -0.09864,-0.177898 0.240392,-0.856332 0.753402,-1.507626 0.923786,-1.172825 0.932725,-1.222633 0.932725,-5.19504 0,-3.283686 -0.108019,-4.246888 -0.595801,-5.312697 -0.334395,-0.73066 -0.727798,-2.640803 -0.896637,-4.353655 -0.327064,-3.317878 -0.688176,-3.95047 -2.25511,-3.95047 -1.624295,0 -3.926789,-0.738027 -4.657474,-1.492879 -0.600685,-0.620553 -0.882767,-1.633921 -1.549843,-5.56772 -0.448525,-2.644999 -0.896755,-5.487408 -0.996068,-6.316464 -0.196765,-1.642592 -1.460285,-4.892283 -2.150421,-5.530743 -0.31865,-0.29479 -0.754046,-0.302918 -1.660005,-0.03098 -0.883293,0.26513 -1.474795,0.261884 -2.106919,-0.01156 C 8.430647,24.44505 7.2976622,24.376501 6.1630392,24.502038 4.34074,24.703664 4.2015835,24.663716 3.1537418,23.63817 2.5494872,23.046771 2.0550966,22.276795 2.0550966,21.927112 c 0,-0.405354 0.7550922,-1.186994 2.0833604,-2.156607 2.7307122,-1.993377 3.4722655,-2.824803 3.4722655,-3.893086 0,-1.479524 1.7282385,-3.072166 3.8686695,-3.565136 1.012704,-0.23324 2.496393,-0.793026 3.297087,-1.243969 2.435067,-1.3714054 3.454539,-0.85011 1.743773,0.891663 -0.552299,0.562306 -0.942581,1.071674 -0.867296,1.131927 0.07529,0.06025 0.692442,0.506403 1.371468,0.991443 0.679016,0.485042 2.267756,1.749323 3.530535,2.809514 2.527783,2.122265 3.961903,2.64488 7.257905,2.64488 1.078903,0 3.815155,0.245867 6.080557,0.546371 4.606145,0.611002 9.520207,0.452302 13.686946,-0.442022 5.387911,-1.156429 9.57859,-0.49171 11.948847,1.895306 2.155322,2.17055 2.85654,4.302527 3.925262,11.934328 0.999229,7.135523 2.06017,10.790028 3.922678,13.512003 1.245599,1.820383 0.642292,1.659406 -0.887035,-0.236682 -1.864669,-2.311847 -2.894754,-4.861395 -4.076875,-10.090563 -0.545117,-2.411376 -1.087953,-4.492258 -1.2063,-4.624183 -0.466105,-0.519564 -1.156866,0.906299 -1.621913,3.347945 -0.588546,3.090072 -0.419817,5.956496 0.547765,9.305336 0.619944,2.145668 0.651269,2.577137 0.31773,4.37718 -0.553468,2.986985 -0.452797,4.938379 0.387958,7.520324 0.695469,2.135764 0.717561,2.377479 0.267854,2.931395 -0.377262,0.464688 -0.443214,0.997821 -0.286414,2.315387 0.176417,1.482472 0.122606,1.760072 -0.401882,2.072967 -0.706506,0.421477 -4.658559,0.492796 -4.658559,0.08406 0,-0.152465 0.336859,-0.786165 0.748573,-1.408228 0.910459,-1.375616 1.552862,-5.205211 1.330892,-7.933947 -0.10125,-1.244707 -0.539139,-2.767127 -1.243171,-4.322235 -0.597779,-1.320391 -1.253287,-3.315699 -1.456689,-4.434027 -0.859627,-4.726442 -3.177369,-8.116125 -5.549493,-8.116125 -1.147412,0 -3.191984,1.420404 -5.50188,3.822261 -2.77122,2.881539 -3.278703,3.019723 -8.077241,2.199335 -3.947454,-0.674879 -6.103154,-0.526357 -6.917412,0.476595 -0.437052,0.538336 -0.485033,1.445042 -0.367817,6.951852 0.07413,3.483024 0.232335,6.935012 0.351547,7.671081 0.170237,1.051062 0.109059,1.405495 -0.285015,1.651328 -0.309536,0.193094 -0.501781,0.760341 -0.501781,1.480587 0,0.816507 -0.206252,1.328599 -0.685969,1.703149 -0.74781,0.583872 -3.180745,0.732632 -3.469329,0.212131 z M 3.2896802,21.774057 c 0,-0.283841 -0.1388907,-0.516073 -0.3086456,-0.516073 -0.169755,0 -0.3086457,0.232232 -0.3086457,0.516073 0,0.28384 0.1388907,0.516074 0.3086457,0.516074 0.1697549,0 0.3086456,-0.232234 0.3086456,-0.516074 z m 6.7356798,-5.79133 c 0.05906,-0.339495 -0.09838,-0.573576 -0.385808,-0.573576 -0.286311,0 -0.4856,0.294161 -0.4856,0.716769 0,0.838463 0.721235,0.719947 0.871408,-0.143193 z"
     style="opacity:1;fill:url(#linearGradient7962);fill-opacity:1;stroke-width:0.32586697" />
  <path
     id="path7876"
     d="M 10.588148,11.022527 C 10.505301,10.691379 10.349709,10.033386 10.24239,9.5603196 l -0.195128,-0.8601223 0.633606,0.8122252 c 0.650163,0.8334505 0.859488,2.1121905 0.345758,2.1121905 -0.158316,0 -0.35563,-0.27094 -0.438478,-0.602086 z"
     style="opacity:1;fill:#1e323d;fill-opacity:0.94901961;stroke-width:0.32586697" />
  <path
     id="path7880"
     d="M 11.942295,9.7742658 C 11.419835,7.6941761 11.651741,7.1234616 12.48768,8.4320889 13.338198,9.7635392 13.493779,11.039897 12.824613,11.196216 12.46722,11.279705 12.220582,10.88222 11.942295,9.7742658 Z"
     style="opacity:1;fill:#1e323d;fill-opacity:0.94901961;stroke-width:0.32586697" />
  <path
     id="path7882"
     d="m 16.561455,62.762281 c 0,-0.258321 0.257075,-0.838905 0.571273,-1.290184 0.95673,-1.37413 1.216877,-2.121511 1.739847,-4.998525 0.461313,-2.537851 0.462445,-3.024268 0.0137,-5.90723 -0.473012,-3.038966 -0.409644,-4.585242 0.224684,-5.482968 0.36777,-0.520477 2.507016,-0.567886 3.335043,-0.07391 0.825221,0.492304 0.817891,3.498705 -0.01352,5.54112 -0.463033,1.137488 -0.612154,2.258364 -0.617295,4.640105 -0.0055,2.36468 -0.121125,3.246114 -0.469747,3.568629 -0.293357,0.271397 -0.462969,1.030743 -0.462969,2.072764 0,1.535171 -0.06456,1.669563 -0.971987,2.022167 -1.398068,0.54327 -3.349051,0.489693 -3.349051,-0.09197 z"
     style="opacity:1;fill:#1e323d;fill-opacity:0.94901961;stroke-width:0.32586697" />
  <path
     id="path7884"
     d="m 46.840237,48.358156 c -0.356468,-1.045142 -1.10757,-1.415271 -1.905725,-0.939112 -0.525536,0.313518 -0.594928,0.235478 -0.594928,-0.669027 0,-0.563172 -0.138893,-1.119633 -0.308652,-1.236582 -1.033975,-0.712334 0.392833,-3.363943 2.901284,-5.391799 1.82652,-1.476574 3.346411,-1.35916 4.824354,0.37269 1.79135,2.099101 2.731047,5.946489 1.688068,6.911378 -0.254638,0.235567 -0.462969,0.650358 -0.462969,0.921759 0,0.423476 -0.09257,0.421182 -0.652731,-0.01617 -0.729214,-0.569348 -1.507797,-0.396161 -1.507797,0.335396 0,0.606143 -0.302665,0.592536 -1.062091,-0.04775 -0.777185,-0.655266 -1.380243,-0.638845 -2.069376,0.05634 -0.520304,0.524885 -0.57567,0.505519 -0.849437,-0.297126 z"
     style="opacity:1;fill:#1e323d;fill-opacity:0.94901961;stroke-width:0.32586697" />
  <path
     id="path7886"
     d="m 48.043336,63.334347 c 0,-0.322138 0.402977,-1.057543 0.895496,-1.634233 1.219258,-1.427596 2.347706,-6.388789 2.064382,-9.075966 -0.125484,-1.190093 -0.06033,-2.21494 0.179278,-2.818233 0.331019,-0.833608 0.463042,-0.904082 1.093627,-0.583812 0.607316,0.308454 0.853364,0.218769 1.606545,-0.585597 l 0.889399,-0.949835 0.196098,0.995239 c 0.135408,0.687206 -0.03706,1.575475 -0.557358,2.869945 -0.509745,1.26834 -0.82134,2.842685 -0.963351,4.867414 -0.134332,1.915163 -0.367099,3.138135 -0.646496,3.396605 -0.251897,0.233039 -0.436582,1.026769 -0.436582,1.876333 0,1.342222 -0.08599,1.505839 -0.971997,1.850142 -1.554251,0.603965 -3.349041,0.492496 -3.349041,-0.208002 z"
     style="opacity:1;fill:#1e323d;fill-opacity:0.94901961;stroke-width:0.32586697" />
  <path
     id="path7888"
     d="m 71.986169,55.983075 c -1.050153,-1.027813 -1.383702,-1.890619 -1.848648,-4.782081 -0.150905,-0.938415 -0.111533,-1.103824 0.184253,-0.77411 0.206887,0.23062 0.611777,0.41931 0.899754,0.41931 0.287977,0 0.954651,0.547264 1.481503,1.216142 0.793031,1.006826 0.957906,1.506672 0.957906,2.904112 0,0.928383 -0.13057,1.777925 -0.290166,1.887872 -0.159596,0.109947 -0.782666,-0.282113 -1.384602,-0.871245 z"
     style="opacity:1;fill:#1e323d;fill-opacity:0.94901961;stroke-width:0.32586697" />
</svg>
