<?xml version="1.0" encoding="UTF-8" standalone="no"?>
<svg
   xmlns:dc="http://purl.org/dc/elements/1.1/"
   xmlns:cc="http://creativecommons.org/ns#"
   xmlns:rdf="http://www.w3.org/1999/02/22-rdf-syntax-ns#"
   xmlns:svg="http://www.w3.org/2000/svg"
   xmlns="http://www.w3.org/2000/svg"
   xmlns:xlink="http://www.w3.org/1999/xlink"
   viewBox="0 0 75.590554 75.59055"
   height="2cm"
   width="2cm"
   id="svg297"
   version="1.1">
  <metadata
     id="metadata303">
    <rdf:RDF>
      <cc:Work
         rdf:about="">
        <dc:format>image/svg+xml</dc:format>
        <dc:type
           rdf:resource="http://purl.org/dc/dcmitype/StillImage" />
        <dc:title></dc:title>
      </cc:Work>
    </rdf:RDF>
  </metadata>
  <defs
     id="defs301">
    <linearGradient
       id="linearGradient7622">
      <stop
         id="stop7618"
         offset="0"
         style="stop-color:#1e323d;stop-opacity:1;" />
      <stop
         id="stop7620"
         offset="1"
         style="stop-color:#1e323d;stop-opacity:0;" />
    </linearGradient>
    <linearGradient
       id="linearGradient7327">
      <stop
         id="stop7323"
         offset="0"
         style="stop-color:#1e323d;stop-opacity:1;" />
      <stop
         id="stop7325"
         offset="1"
         style="stop-color:#1e323d;stop-opacity:0;" />
    </linearGradient>
    <linearGradient
       id="linearGradient7246">
      <stop
         id="stop7242"
         offset="0"
         style="stop-color:#1e323d;stop-opacity:1;" />
      <stop
         id="stop7244"
         offset="1"
         style="stop-color:#1e323d;stop-opacity:0;" />
    </linearGradient>
    <linearGradient
       gradientUnits="userSpaceOnUse"
       y2="-12.577412"
       x2="93.325424"
       y1="69.94191"
       x1="57.959999"
       id="linearGradient7254"
       xlink:href="#linearGradient7246" />
    <linearGradient
       gradientUnits="userSpaceOnUse"
       y2="-6.4375811"
       x2="-7.858983"
       y1="70.678688"
       x1="3.6838982"
       id="linearGradient7339"
       xlink:href="#linearGradient7327" />
    <linearGradient
       gradientUnits="userSpaceOnUse"
       y2="0.56916171"
       x2="40.289265"
       y1="78.369125"
       x1="-23.617846"
       id="linearGradient7624"
       xlink:href="#linearGradient7622" />
  </defs>
  <path
     id="path7573"
     d="m 15.039358,59.992766 c -0.72402,-0.208574 -1.956,-1.415588 -2.3986,-2.35 -1.0456,-2.207412 0.53391,-5.128769 3.1099,-5.751863 3.75794,-0.908991 6.49288,4.087777 3.82286,6.984403 -1.07719,1.168614 -2.84458,1.604193 -4.53416,1.11746 z"
     style="opacity:1;fill:#1e323d;fill-opacity:0.94901961;stroke-width:0.17650333" />
  <path
     id="path7575"
     d="m 21.115638,66.529384 c -0.57259,-0.08359 -1.40656,-0.327702 -1.85329,-0.542467 -0.8798,-0.42297 -2.59681,-2.047571 -3.01036,-2.848342 -0.33501,-0.6487 -0.0873,-0.820508 1.18843,-0.824209 0.82186,-0.0024 1.03675,0.08023 1.82069,0.699897 0.96869,0.765702 2.27842,1.238937 3.4289,1.238937 1.935175,0 4.979578,-1.188635 7.815293,-3.051347 2.119687,-1.392373 5.683407,-4.288877 5.683407,-4.619334 0,-0.28145 -0.209315,-0.544216 -3.072859,-3.857547 -1.159018,-1.34107 -2.311876,-2.543149 -2.561905,-2.671287 -0.25003,-0.128138 -1.328292,-0.328056 -2.396137,-0.444261 -2.292616,-0.249489 -5.669909,-0.768008 -7.473699,-1.147448 -1.74033,-0.366089 -1.73204,-0.367932 -1.85684,0.412511 -0.14408,0.901011 -0.43441,1.119292 -1.30385,0.980264 -1.09692,-0.175405 -1.14033,-0.236754 -0.91408,-1.291746 0.10916,-0.509013 0.17087,-0.94343 0.13712,-0.965373 -0.0337,-0.02194 -1.09391,-0.422185 -2.35591,-0.889428 -6.0610102,-2.24403 -9.4833002,-4.642031 -10.9032202,-7.639892 -0.5126,-1.082227 -0.56895,-1.361079 -0.56406,-2.79089 0.005,-1.437463 0.062,-1.705416 0.60065,-2.817639 0.74726,-1.543084 2.71167,-3.551846 4.65289,-4.757927 1.63956,-1.018666 4.6892602,-2.404624 6.8049402,-3.092555 1.84856,-0.601077 1.84483,-0.590337 1.17645,-3.385629 -1.64597,-6.88371 -1.20336,-11.719706 1.30575,-14.2668395 1.1631,-1.180729 2.14355,-1.688656 3.74883,-1.942109 1.19933,-0.189361 3.769769,0.02582 4.096424,0.342926 0.0841,0.08164 -0.06031,0.537499 -0.323398,1.020887 l -0.47535,0.873376 -1.721796,0.09488 c -2.02202,0.11142 -2.82766,0.444725 -3.78865,1.567419 -1.00767,1.1772425 -1.37388,2.3756095 -1.47649,4.8316475 -0.0495,1.185132 0.003,2.805725 0.11842,3.675287 0.18907,1.420714 1.16621,5.5649 1.35716,5.755849 0.0442,0.04424 2.04361,-0.215797 4.44306,-0.577849 2.399456,-0.362053 4.996637,-0.735718 5.77152,-0.830366 1.635192,-0.199731 1.237761,0.123527 4.658007,-3.788681 l 2.468929,-2.824053 -0.682256,-0.706013 -0.682254,-0.706013 0.362457,-0.441259 c 0.199351,-0.242692 0.51068,-0.629129 0.691845,-0.85875 l 0.329387,-0.417492 0.638121,0.638121 c 0.350966,0.350967 0.729462,0.638107 0.8411,0.63809 0.111639,-1.7e-5 1.275237,-0.845139 2.585774,-1.878049 6.249515,-4.9256005 9.847006,-6.5782685 13.872239,-6.3728315 2.058542,0.105062 2.673266,0.337027 3.96074,1.494576 1.092751,0.982478 2.203204,3.1552625 2.460717,4.8147995 0.409296,2.6377 0.101177,6.157403 -0.886445,10.126086 -0.286767,1.152351 -0.521395,2.193925 -0.521395,2.314608 0,0.120682 0.853835,0.517366 1.897411,0.881519 2.394321,0.835491 5.825784,2.458903 7.297294,3.452322 4.293512,2.898556 5.669142,6.348701 4.043472,10.141232 l -0.358129,0.835471 -0.736158,-0.924575 -0.736158,-0.924576 -0.0158,-1.610706 c -0.01364,-1.390749 -0.08115,-1.73574 -0.494411,-2.526334 -0.919459,-1.758999 -3.23421,-3.628907 -6.165455,-4.980592 -1.520776,-0.701276 -5.444048,-2.190452 -5.529061,-2.098695 -0.02663,0.02875 -0.261728,0.56854 -0.522428,1.199539 -0.260703,0.631 -1.192017,2.675076 -2.069592,4.542393 l -1.595586,3.395119 1.54144,3.400259 c 0.847793,1.870141 1.768931,3.90168 2.046975,4.51453 l 0.505532,1.114271 1.057122,-0.05239 c 1.144104,-0.0567 1.249603,0.0012 1.594549,0.875444 0.20494,0.519393 0.193973,0.606834 -0.104088,0.830042 -0.183237,0.137221 -0.546094,0.298067 -0.806346,0.357437 -0.856799,0.195456 -0.928756,0.466073 -0.526637,1.980597 1.14338,4.30638 1.532586,8.588997 1.013422,11.151174 -0.747696,3.690035 -2.534194,5.660668 -5.618688,6.197809 -3.489764,0.607716 -8.971765,-1.755298 -14.163282,-6.105076 -0.776615,-0.650695 -1.744693,-1.456267 -2.151283,-1.790158 l -0.739258,-0.607077 -1.467034,1.27473 c -6.15732,5.350192 -11.372215,7.790732 -15.392829,7.203756 z m 34.695898,-2.927831 c 0.489481,-0.266408 1.149925,-0.788083 1.467654,-1.159279 0.911006,-1.064306 1.061484,-1.888877 1.054563,-5.778717 -0.0062,-3.492237 -0.238384,-5.42019 -0.898031,-7.457267 -0.334238,-1.032172 -0.210777,-1.023369 -4.443482,-0.316842 -1.718488,0.286849 -4.117355,0.610465 -5.330815,0.719143 l -2.206292,0.197595 -0.52951,0.646635 c -0.987842,1.206347 -4.107351,4.707784 -4.658514,5.228864 -0.301584,0.285123 -0.548334,0.588822 -0.548334,0.674887 0,0.184506 1.552046,1.625027 3.072268,2.851501 2.593593,2.092444 6.447681,4.296345 8.364757,4.783262 1.527038,0.38785 3.535994,0.219658 4.655736,-0.389782 z M 39.985814,52.82461 c 1.066588,-1.140654 2.048261,-2.212912 2.181493,-2.382796 0.229262,-0.29233 0.0141,-0.308881 -4.015451,-0.308881 -2.34173,0 -4.257691,0.06921 -4.257691,0.15381 0,0.169018 3.911287,4.611781 4.060087,4.611781 0.05077,0 0.964973,-0.933262 2.031562,-2.073914 z m 6.137204,-7.604894 c 3.243162,-4.532918 5.718397,-8.63867 5.519879,-9.155999 C 51.136341,34.743654 44.83352,25.179533 44.255775,24.854241 43.97415,24.695676 42.224287,24.61717 37.923727,24.570162 l -5.942876,-0.06496 -0.97281,1.315435 c -1.530184,2.069115 -5.445006,8.052781 -6.118841,9.352428 l -0.610853,1.178174 0.336129,0.580853 c 1.103854,1.907532 3.564442,5.725286 5.237546,8.126372 l 1.937081,2.779928 h 6.230169 6.230167 z m -17.8848,1.544286 c -0.304835,-0.597528 -4.80386,-7.648368 -5.05658,-7.924645 -0.24164,-0.264159 -2.00107,3.360715 -2.90146,5.977756 -0.3088,0.897522 -0.31433,1.007522 -0.06,1.193489 0.37648,0.275291 6.484579,1.429524 7.720582,1.458942 l 0.665476,0.01583 -0.368022,-0.721382 z m 23.22913,0.19493 c 3.382994,-0.562541 4.417418,-0.802277 4.577194,-1.060801 0.123628,-0.200033 -0.816402,-2.65171 -1.955786,-5.100858 L 53.235424,38.963003 52.61059,39.6693 c -0.745973,0.843231 -4.234,5.850918 -4.878234,7.003578 l -0.454118,0.812505 h 0.511575 c 0.281368,0 1.936257,-0.236903 3.677535,-0.526451 z m -33.24232,-3.180119 c 0.36159,-0.728076 1.3223,-2.719703 2.13492,-4.425835 l 1.47749,-3.10206 -1.0106,-2.016537 c -0.55583,-1.109095 -1.507,-3.16822 -2.11371,-4.575834 -0.60671,-1.407614 -1.11523,-2.575115 -1.13005,-2.594446 -0.0831,-0.10838 -4.47416,1.588656 -5.70362,2.204283 -3.0821902,1.543347 -5.2392702,3.306404 -5.9840702,4.890998 -0.53861,1.145898 -0.57044,3.001225 -0.0704,4.102825 1.02689,2.262245 4.04512,4.382989 8.8663702,6.2299 2.53338,0.970481 2.71574,0.933669 3.53367,-0.713294 z m 6.974306,-13.149498 c 1.055578,-1.650306 2.340404,-3.588784 2.855167,-4.307726 l 0.935935,-1.307171 -1.298831,0.110923 c -1.244147,0.106253 -4.585737,0.645727 -6.370097,1.028404 -1.06318,0.228012 -1.40847,0.55152 -1.25828,1.178899 0.20899,0.872998 2.9385,6.581848 3.07848,6.438729 0.0761,-0.07783 1.002048,-1.491752 2.057626,-3.142058 z m 29.004967,0.866995 c 0.905347,-1.893845 1.929283,-4.375249 1.929283,-4.675418 0,-0.429321 -2.01146,-0.913819 -6.139559,-1.478826 -2.309385,-0.316082 -2.509104,-0.325597 -2.509104,-0.11954 0,0.08418 0.877894,1.494005 1.950876,3.132934 1.072979,1.638927 2.284233,3.554526 2.691675,4.256884 0.876968,1.511744 0.801149,1.552486 2.076829,-1.116034 z m 2.806607,-7.745926 C 57.838283,23.001621 58.71629,17.671472 58.567789,14.298983 58.410541,10.7279 56.727306,8.5701645 53.923184,8.3450765 50.712809,8.0873785 45.602007,10.713754 40.520684,15.232448 l -0.874874,0.778003 0.521867,0.619349 c 2.200019,2.610974 4.918417,5.641838 5.191069,5.787757 0.181327,0.09704 1.667157,0.375593 3.301844,0.618999 1.634688,0.243407 3.845851,0.597888 4.913696,0.787735 2.101975,0.3737 2.962471,0.355194 3.436622,-0.07391 z M 41.930847,22.210576 c 0.157616,-0.158086 -0.2807,-0.712432 -2.250103,-2.845743 l -1.60013,-1.733303 -0.782849,0.762534 c -1.133012,1.103612 -3.227097,3.594377 -3.227097,3.838404 0,0.155687 0.980635,0.194943 3.868733,0.15487 2.127802,-0.02952 3.923953,-0.109066 3.991446,-0.176762 z"
     style="opacity:1;fill:url(#linearGradient7624);fill-opacity:1;stroke-width:0.17650333" />
  <path
     id="path7577"
     d="m 28.617556,14.014159 c -1.736098,-0.865134 -2.593226,-2.769961 -2.145887,-4.7688815 0.650714,-2.907697 4.496577,-4.075458 6.741757,-2.047073 1.751317,1.58221 1.967619,3.4959435 0.6167,5.4562575 -1.201372,1.743306 -3.32903,2.298305 -5.21257,1.359697 z"
     style="opacity:1;fill:#1e323d;fill-opacity:0.94901961;stroke-width:0.17650333" />
  <path
     id="path7579"
     d="m 35.570947,41.510738 c -1.070493,-0.50821 -2.297836,-1.656425 -2.791963,-2.611962 -1.120027,-2.165894 -0.527666,-5.192763 1.347824,-6.887155 2.353759,-2.12648 5.714286,-2.082492 7.900188,0.10341 1.64498,1.64498 2.208174,4.07996 1.455554,6.293114 -0.417146,1.226661 -1.939341,2.719957 -3.286313,3.223924 -1.53238,0.573337 -3.257358,0.528087 -4.62529,-0.121331 z"
     style="opacity:1;fill:#1e323d;fill-opacity:0.94901961;stroke-width:0.17650333" />
  <path
     id="path7581"
     d="m 65.624623,47.266886 c -1.756324,-0.360443 -3.136919,-2.208557 -3.136919,-4.199194 0,-1.301221 0.408098,-2.183427 1.404602,-3.036397 2.012577,-1.722691 5.183687,-1.151029 6.403209,1.154319 0.496453,0.938481 0.553328,3.090899 0.103598,3.920643 -0.927378,1.710996 -2.81128,2.56353 -4.77449,2.160629 z"
     style="opacity:1;fill:#1e323d;fill-opacity:0.94901961;stroke-width:0.17650333" />
</svg>
