<?xml version="1.0" encoding="UTF-8" standalone="no"?>
<svg
   xmlns:dc="http://purl.org/dc/elements/1.1/"
   xmlns:cc="http://creativecommons.org/ns#"
   xmlns:rdf="http://www.w3.org/1999/02/22-rdf-syntax-ns#"
   xmlns:svg="http://www.w3.org/2000/svg"
   xmlns="http://www.w3.org/2000/svg"
   viewBox="0 0 200 80"
   height="80"
   width="200"
   id="svg103"
   version="1.1">
  <metadata
     id="metadata109">
    <rdf:RDF>
      <cc:Work
         rdf:about="">
        <dc:format>image/svg+xml</dc:format>
        <dc:type
           rdf:resource="http://purl.org/dc/dcmitype/StillImage" />
        <dc:title></dc:title>
      </cc:Work>
    </rdf:RDF>
  </metadata>
  <defs
     id="defs107" />
  <path
     id="path136"
     d="M 31.222116,48.667319 C 25.595604,47.572791 22.480957,45.19493 21.93541,41.57742 l -0.235914,-1.56433 h 6.032739 c 5.695366,0 6.04764,0.0505 6.29919,0.90336 0.5205,1.76468 2.177411,2.43809 6.000968,2.43893 2.708865,5.8e-4 3.825358,-0.18778 4.679511,-0.78954 1.352293,-0.95271 1.507771,-2.74486 0.298543,-3.44124 -0.452796,-0.26076 -4.572786,-1.06218 -9.155535,-1.78093 -11.671434,-1.83053 -13.425659,-2.91896 -13.425659,-8.33007 0,-2.09328 0.20738,-3.05487 0.865171,-4.0117 2.142487,-3.11648 7.064327,-4.59021 15.290118,-4.57828 6.072346,0.009 10.851887,0.77217 13.320811,2.12752 1.608963,0.88326 4.284312,3.7023 4.284312,4.51441 0,0.21658 0.113147,0.71106 0.251439,1.09885 0.221862,0.62215 -0.427391,0.70507 -5.520008,0.70507 -5.573162,0 -5.803872,-0.0371 -6.715239,-1.08102 -2.517256,-2.8833 -11.21353,-2.37524 -11.21353,0.65511 0,0.50205 0.406733,1.07422 0.932036,1.31114 0.51262,0.2312 4.830472,1.02377 9.59523,1.76127 11.662977,1.8052 13.781309,2.98834 14.223859,7.94435 0.456002,5.10665 -3.201561,8.291119 -10.83507,9.433596 -4.32033,0.646606 -11.749149,0.539295 -15.686266,-0.226597 z"
     style="fill:#f9f9f9;stroke-width:0.42970261" />
  <path
     id="path138"
     d="M 60.746285,34.88702 V 21.29182 H 76.073097 91.39991 v 2.89734 2.89734 H 81.251077 71.102241 v 2.45159 2.4516 h 9.527477 9.527479 v 2.89733 2.89734 h -9.527479 -9.527477 v 2.4516 2.45159 H 81.251077 91.39991 v 2.89734 2.897338 H 76.073097 60.746285 Z"
     style="fill:#f9f9f9;stroke-width:0.42970261" />
  <path
     id="path140"
     d="m 94.713818,34.88702 v -13.5952 h 7.570692 7.57069 l 5.99254,9.46588 c 7.02125,11.09084 6.49554,11.19733 6.57102,-1.33104 l 0.049,-8.13484 h 4.55662 4.55661 v 13.5952 13.595208 l -7.14561,-0.0223 -7.1456,-0.02227 -5.55326,-8.415278 c -3.05429,-4.62841 -5.9835,-8.9811 -6.50935,-9.67266 l -0.9561,-1.25738 -0.0149,9.69495 -0.0149,9.694936 h -4.76374 -4.763742 z"
     style="fill:#f9f9f9;stroke-width:0.42970261" />
  <path
     id="path142"
     d="m 134.08825,44.55875 c 1.09155,-2.15792 4.22153,-8.27327 6.9555,-13.58968 l 4.97086,-9.66619 6.83493,0.004 6.83493,0.004 6.73137,13.28288 c 3.70226,7.30559 6.73138,13.419032 6.73138,13.585435 0,0.166403 -2.57271,0.302553 -5.71713,0.302553 h -5.71712 l -0.87505,-2.228728 -0.87505,-2.22872 h -7.22958 -7.22958 l -0.86075,2.22872 -0.86074,2.228728 h -5.83931 -5.83931 z m 22.66974,-7.33157 c -0.15938,-0.55161 -1.12673,-2.8028 -2.14968,-5.00264 l -1.85992,-3.99971 -1.25605,2.66248 c -0.69084,1.46437 -1.69097,3.71555 -2.22252,5.00264 l -0.96645,2.34016 h 4.37219 c 4.34383,0 4.37032,-0.007 4.08243,-1.00293 z"
     style="fill:#f9f9f9;stroke-width:0.42970261" />
</svg>
