<?xml version="1.0" encoding="UTF-8" standalone="no"?>
<svg
   xmlns:dc="http://purl.org/dc/elements/1.1/"
   xmlns:cc="http://creativecommons.org/ns#"
   xmlns:rdf="http://www.w3.org/1999/02/22-rdf-syntax-ns#"
   xmlns:svg="http://www.w3.org/2000/svg"
   xmlns="http://www.w3.org/2000/svg"
   version="1.1"
   id="svg103"
   width="240"
   height="80"
   viewBox="0 0 240 80">
  <metadata
     id="metadata109">
    <rdf:RDF>
      <cc:Work
         rdf:about="">
        <dc:format>image/svg+xml</dc:format>
        <dc:type
           rdf:resource="http://purl.org/dc/dcmitype/StillImage" />
        <dc:title></dc:title>
      </cc:Work>
    </rdf:RDF>
  </metadata>
  <defs
     id="defs107" />
  <path
     style="fill:#ffffff;stroke-width:0.42970261"
     d="M 31.222116,51.572888 C 25.595604,50.47836 22.480957,48.100499 21.93541,44.482989 l -0.235914,-1.56433 h 6.032739 c 5.695366,0 6.04764,0.0505 6.29919,0.90336 0.5205,1.76468 2.177411,2.43809 6.000968,2.43893 2.708865,5.8e-4 3.825358,-0.18778 4.679511,-0.78954 1.352293,-0.95271 1.507771,-2.74486 0.298543,-3.44124 -0.452796,-0.26076 -4.572786,-1.06218 -9.155535,-1.78093 -11.671434,-1.83053 -13.425659,-2.91896 -13.425659,-8.33007 0,-2.09328 0.20738,-3.05487 0.865171,-4.0117 2.142487,-3.11648 7.064327,-4.59021 15.290118,-4.57828 6.072346,0.009 10.851887,0.77217 13.320811,2.12752 1.608963,0.88326 4.284312,3.7023 4.284312,4.51441 0,0.21658 0.113147,0.71106 0.251439,1.09885 0.221862,0.62215 -0.427391,0.70507 -5.520008,0.70507 -5.573162,0 -5.803872,-0.0371 -6.715239,-1.08102 -2.517256,-2.8833 -11.21353,-2.37524 -11.21353,0.65511 0,0.50205 0.406733,1.07422 0.932036,1.31114 0.51262,0.2312 4.830472,1.02377 9.59523,1.76127 11.662977,1.8052 13.781309,2.98834 14.223859,7.94435 0.456002,5.10665 -3.201561,8.291119 -10.83507,9.433596 -4.32033,0.646606 -11.749149,0.539295 -15.686266,-0.226597 z"
     id="path136" />
  <path
     style="fill:#ffffff;stroke-width:0.42970261"
     d="m 60.746285,37.792589 v -13.5952 H 76.073097 91.39991 v 2.89734 2.89734 H 81.251077 71.102241 v 2.45159 2.4516 h 9.527477 9.527479 v 2.89733 2.89734 h -9.527479 -9.527477 v 2.4516 2.45159 H 81.251077 91.39991 v 2.89734 2.897338 H 76.073097 60.746285 Z"
     id="path138" />
  <path
     style="fill:#ffffff;stroke-width:0.42970261"
     d="m 94.713818,37.792589 v -13.5952 h 7.570692 7.57069 l 5.99254,9.46588 c 7.02125,11.09084 6.49554,11.19733 6.57102,-1.33104 l 0.049,-8.13484 h 4.55662 4.55661 v 13.5952 13.595208 l -7.14561,-0.0223 -7.1456,-0.02227 -5.55326,-8.415278 c -3.05429,-4.62841 -5.9835,-8.9811 -6.50935,-9.67266 l -0.9561,-1.25738 -0.0149,9.69495 -0.0149,9.694936 h -4.76374 -4.763742 z"
     id="path140" />
  <path
     style="fill:#ffffff;stroke-width:0.42970261"
     d="m 134.08825,47.464319 c 1.09155,-2.15792 4.22153,-8.27327 6.9555,-13.58968 l 4.97086,-9.66619 6.83493,0.004 6.83493,0.004 6.73137,13.28288 c 3.70226,7.30559 6.73138,13.419032 6.73138,13.585435 0,0.166403 -2.57271,0.302553 -5.71713,0.302553 h -5.71712 l -0.87505,-2.228728 -0.87505,-2.22872 h -7.22958 -7.22958 l -0.86075,2.22872 -0.86074,2.228728 h -5.83931 -5.83931 z m 22.66974,-7.33157 c -0.15938,-0.55161 -1.12673,-2.8028 -2.14968,-5.00264 l -1.85992,-3.99971 -1.25605,2.66248 c -0.69084,1.46437 -1.69097,3.71555 -2.22252,5.00264 l -0.96645,2.34016 h 4.37219 c 4.34383,0 4.37032,-0.007 4.08243,-1.00293 z"
     id="path142" />
  <path
     id="path424"
     d="m 191.04906,52.882062 c -0.90655,-0.682028 -1.7063,-1.288276 -1.7063,-1.364057 0,-0.151562 1.40687,-2.121866 3.97004,-5.532009 3.84059,-5.153105 4.66523,-6.441382 4.66556,-7.123411 1.1e-4,-0.303123 -0.18166,-0.454685 -0.73379,-0.606247 -0.54351,-0.151562 -2.86381,-0.151562 -9.38974,-0.151562 h -5.63075 v -1.364058 -1.288275 h 11.33308 c 6.23318,0.07578 11.35298,0.07578 11.3773,0.07578 0.0679,0 -0.36964,0.606248 -5.82128,7.881218 -2.7934,3.713269 -5.56369,7.426535 -6.15621,8.260127 -0.59251,0.757809 -1.11397,1.439837 -1.15878,1.515618 -0.0669,0.07578 -0.20092,0.07578 -0.74913,-0.303124 z"
     style="fill:#ffffff;stroke-width:0.08051815" />
  <path
     id="path426"
     d="m 214.38147,53.109405 c -4.65653,-5.986695 -6.1046,-7.729658 -6.8315,-8.260125 -0.31373,-0.227342 -0.42318,-0.227342 -0.76358,-0.227342 -0.49655,0 -0.90228,0.07578 -1.09243,0.227342 -0.36738,0.227343 -2.52265,2.955459 -5.85133,7.274973 -1.04125,1.364057 -2.12199,2.728115 -2.40166,3.031239 l -0.50848,0.530466 -0.44312,-0.151562 c -0.2437,-0.07578 -0.8933,-0.303124 -1.44355,-0.454686 l -1.00043,-0.378906 1.96946,-2.576551 c 4.31185,-5.607791 8.34847,-10.836678 9.39601,-12.276514 0.60711,-0.757811 1.14178,-1.439839 1.18815,-1.515621 0.0907,0 12.30127,15.383536 12.78463,16.141344 0.0659,0.07578 -0.12614,0.227342 -1.33413,0.68203 -0.77609,0.303123 -1.44958,0.606246 -1.49663,0.606246 -0.0469,0 -1.02418,-1.212494 -2.17141,-2.652333 z"
     style="fill:#ffffff;stroke-width:0.08051815" />
  <path
     id="path430"
     d="m 214.59744,44.424171 -6.61905,-8.71481 3.01667,-0.07578 c 1.65919,-0.07578 6.69289,-0.07578 11.18606,-0.07578 l 8.16939,-0.07578 v 1.288276 1.212496 l -6.35396,0.07578 c -3.49469,0 -6.94811,0 -7.67428,0.07578 -1.23988,0.151561 -1.32659,0.151561 -1.42334,0.682028 -0.13235,0.757809 0.25499,1.439838 4.59003,7.350753 1.97993,2.728114 3.59986,5.001543 3.59986,5.228885 0,0.227343 -1.53989,1.742963 -1.78957,1.742963 -0.0455,0 -3.06133,-3.940611 -6.70181,-8.714811 z"
     style="fill:#ffffff;stroke-width:0.22773974" />
  <path
     id="path432"
     d="m 195.49601,55.07971 -1.24155,-0.530466 5.97835,-7.729658 c 3.28807,-4.319515 6.08814,-7.88122 6.22236,-8.032782 0.21986,-0.151562 3.03222,3.258581 10.70389,12.958544 l 2.10697,2.652334 -1.26655,0.682028 c -0.69659,0.303124 -1.32658,0.530467 -1.39996,0.530467 -0.0733,-0.07578 -1.69722,-2.046087 -3.60851,-4.471078 -4.68073,-5.986695 -5.24332,-6.517161 -6.34589,-6.517161 -1.07395,0 -1.10447,0 -5.58544,5.759353 -1.86465,2.42499 -3.59995,4.546858 -3.85621,4.774201 l -0.46591,0.454685 z"
     style="fill:#ffffff;stroke-width:0.22773974" />
  <path
     style="fill:#ffffff;stroke-width:0.08621334"
     d="m 192.92118,32.813245 c -1.11077,-0.223182 -1.72564,-0.708045 -1.83334,-1.44568 l -0.0465,-0.318978 h 1.19096 c 1.12435,0 1.1939,0.01025 1.24355,0.184201 0.10274,0.359831 0.42985,0.497144 1.18468,0.497315 0.53477,1.18e-4 0.75519,-0.0383 0.92381,-0.160993 0.26696,-0.194264 0.29766,-0.559696 0.0589,-0.701692 -0.0894,-0.05316 -0.90273,-0.216586 -1.80744,-0.363145 -2.30412,-0.373258 -2.65043,-0.595195 -2.65043,-1.69856 0,-0.426834 0.0409,-0.622909 0.17079,-0.818013 0.42297,-0.635473 1.39461,-0.935976 3.01851,-0.933543 1.19877,0.0018 2.14232,0.15745 2.62973,0.433815 0.31764,0.180104 0.84578,0.754925 0.84578,0.92052 0,0.04417 0.0223,0.144991 0.0496,0.224063 0.0438,0.126867 -0.0844,0.14377 -1.08972,0.14377 -1.10024,0 -1.14578,-0.0076 -1.32569,-0.220427 -0.49696,-0.587927 -2.21373,-0.484329 -2.21373,0.133577 0,0.102369 0.0803,0.21904 0.184,0.267349 0.10119,0.04714 0.95361,0.208754 1.89424,0.359136 2.30245,0.368093 2.72065,0.609343 2.80801,1.619909 0.09,1.041281 -0.63203,1.690617 -2.13901,1.923576 -0.85289,0.13185 -2.31945,0.109964 -3.09671,-0.0462 z"
     id="path136-7" />
  <path
     style="fill:#ffffff;stroke-width:0.08621334"
     d="m 198.7497,30.003345 v -2.772157 h 3.02574 3.02575 v 0.590789 0.590787 h -2.00353 -2.00354 v 0.499896 0.499899 h 1.88087 1.88086 v 0.590786 0.590788 h -1.88086 -1.88087 v 0.499899 0.499896 h 2.00354 2.00353 v 0.590787 0.590789 h -3.02575 -3.02574 z"
     id="path138-9" />
  <path
     style="fill:#ffffff;stroke-width:0.08621334"
     d="m 205.45541,30.003345 v -2.772157 h 1.49456 1.49458 l 1.18301,1.93016 c 1.3861,2.2615 1.28232,2.283215 1.29723,-0.271409 l 0.01,-1.658751 h 0.89954 0.89955 v 2.772157 2.772159 l -1.41065,-0.0045 -1.41065,-0.0045 -1.09629,-1.715934 c -0.60298,-0.943765 -1.18124,-1.831309 -1.28505,-1.972323 l -0.18876,-0.256389 -0.002,1.976868 -0.002,1.976865 h -0.94043 -0.94044 z"
     id="path140-3" />
  <path
     style="fill:#ffffff;stroke-width:0.08621334"
     d="m 213.22852,31.975478 c 0.21549,-0.440014 0.83339,-1.686977 1.37312,-2.77103 l 0.98133,-1.971004 1.34932,8.16e-4 1.34932,8.15e-4 1.32887,2.708473 c 0.73089,1.48966 1.32888,2.736234 1.32888,2.770165 0,0.03393 -0.5079,0.06169 -1.12865,0.06169 h -1.12865 l -0.17275,-0.454453 -0.17274,-0.454452 h -1.42723 -1.42723 l -0.16993,0.454452 -0.16993,0.454453 h -1.15276 -1.15277 z m 4.47535,-1.494958 c -0.0315,-0.112477 -0.22243,-0.57151 -0.42438,-1.020074 l -0.36718,-0.815568 -0.24796,0.542898 c -0.13638,0.298595 -0.33382,0.757626 -0.43876,1.020074 l -0.19079,0.477174 h 0.86314 c 0.85754,0 0.86277,-0.0014 0.80593,-0.204504 z"
     id="path142-8" />
  <ellipse
     ry="4.9636803"
     rx="5.0847459"
     cy="20.861986"
     cx="206.60048"
     id="path600"
     style="fill:#ffffff" />
</svg>
